<svg id="eye" xmlns="http://www.w3.org/2000/svg" width="17.692" height="13.772" viewBox="0 0 17.692 13.772">
  <path id="Path_20" data-name="Path 20" d="M.536,7.639A9.759,9.759,0,0,1,8.841,2.655a9.759,9.759,0,0,1,8.305,4.984,3.617,3.617,0,0,1,0,3.8,9.759,9.759,0,0,1-8.305,4.984A9.759,9.759,0,0,1,.536,11.443,3.617,3.617,0,0,1,.536,7.639Zm1.256,3.032a8.337,8.337,0,0,0,7.049,4.282,8.337,8.337,0,0,0,7.049-4.282,2.15,2.15,0,0,0,0-2.261A8.337,8.337,0,0,0,8.841,4.129,8.331,8.331,0,0,0,1.792,8.411,2.15,2.15,0,0,0,1.792,10.672Z" transform="translate(0.004 -2.655)" fill="#233f82"/>
  <path id="Path_21" data-name="Path 21" d="M10.684,7A3.684,3.684,0,1,1,7,10.684,3.684,3.684,0,0,1,10.684,7Zm0,5.9a2.211,2.211,0,1,0-2.211-2.211A2.211,2.211,0,0,0,10.684,12.9Z" transform="translate(-1.839 -3.798)" fill="#233f82"/>
</svg>
