<svg id="Google__G__Logo" xmlns="http://www.w3.org/2000/svg" width="18.29" height="18.687" viewBox="0 0 18.29 18.687">
  <path id="Path_608" data-name="Path 608" d="M-5.808,51.006a10.825,10.825,0,0,0-.148-1.767h-8.8v3.512h5.038a4.338,4.338,0,0,1-1.869,2.788v2.336h3.006A9.136,9.136,0,0,0-5.808,51.006Z" transform="translate(24.098 -41.453)" fill="#4285f4"/>
  <path id="Path_609" data-name="Path 609" d="M-17.125,61.09a8.9,8.9,0,0,0,6.175-2.266l-3.006-2.336a5.637,5.637,0,0,1-3.169.9,5.58,5.58,0,0,1-5.24-3.862h-3.1v2.406A9.33,9.33,0,0,0-17.125,61.09Z" transform="translate(26.468 -42.402)" fill="#34a853"/>
  <path id="Path_610" data-name="Path 610" d="M-22.651,51.831a5.422,5.422,0,0,1-.3-1.783,5.633,5.633,0,0,1,.3-1.783V45.859h-3.1a9.235,9.235,0,0,0-1,4.189,9.235,9.235,0,0,0,1,4.189Z" transform="translate(26.754 -40.704)" fill="#fbbc05"/>
  <path id="Path_611" data-name="Path 611" d="M-17.125,42.938a5.069,5.069,0,0,1,3.582,1.4l2.663-2.663a8.933,8.933,0,0,0-6.245-2.437,9.33,9.33,0,0,0-8.339,5.155l3.1,2.406A5.58,5.58,0,0,1-17.125,42.938Z" transform="translate(26.468 -39.239)" fill="#ea4335"/>
</svg>
