<svg xmlns="http://www.w3.org/2000/svg" width="131.483" height="197.62" viewBox="0 0 131.483 197.62">
  <g id="Group_2212" data-name="Group 2212" transform="translate(-124.517 -58.38)">
    <g id="Layer_2" data-name="Layer 2" transform="translate(124.517 58.38)">
      <g id="Layer_1" data-name="Layer 1" transform="translate(0 0)">
        <path id="Path_594" data-name="Path 594" d="M89.013,217.8a5.868,5.868,0,0,1-5.557-4.268L59.523,131.19a5.445,5.445,0,0,1,2.954-6.569L113.8,105.46a5.168,5.168,0,0,1,2.068-.42,5.858,5.858,0,0,1,5.533,4.186L163.953,180.7l.02.074a5.445,5.445,0,0,1-2.954,6.569L91.108,217.362a5.232,5.232,0,0,1-2.095.433Z" transform="translate(-39.236 -69.492)" fill="#1a2d59"/>
        <path id="Path_595" data-name="Path 595" d="M163.391,179.412l-.044-.149-.081-.135-2.247-3.777-.44-.734-.494-.833-2.826-4.738-.315-.528-.315-.528L128.3,120.385l-.166-.281-.169-.284L120.8,107.782a6.6,6.6,0,0,0-1.9-2.927,6.487,6.487,0,0,0-1.249-.877,6.22,6.22,0,0,0-2.948-.748,5.922,5.922,0,0,0-2.308.467l-16.244,6.065-.227.085-.112.041-.1.041-.122.044-.227.085-2.031.755-.338.129-.338.132-2.931,1.093-.4.149-.406.152-2.535.948-.592.22-.6.227-24.055,8.982h-.054a6.054,6.054,0,0,0-3.3,7.3l5.036,17.344.142.491.139.477,1.053,3.624.166.572.149.511,1.262,4.339.071.25.078.267L73.7,184.972l2.1,7.256v.027l.02.064.024.091,4.159,14.278,1.476,5.1.21.721a6.643,6.643,0,0,0,2.091,3.208,6.429,6.429,0,0,0,1.929,1.12l.257.088h0a6.214,6.214,0,0,0,1.858.288,5.916,5.916,0,0,0,2.339-.481l69.908-30.018A6.052,6.052,0,0,0,163.391,179.412ZM98.508,211.823l-5.611,2.41-1.77.761-1.432.613a4.626,4.626,0,0,1-1.543.365h-.3a4.958,4.958,0,0,1-1.509-.24c-.108-.034-.217-.074-.338-.118a5.313,5.313,0,0,1-3.134-3.465l-6.532-22.481-.034-.112-.014-.1-.02-.074-2.031-6.928-6.8-23.385-.095-.338-.088-.3-.853-2.934-.159-.538-.149-.518L64.812,150l-.129-.44-.132-.453-5.6-19.29a4.8,4.8,0,0,1,2.613-5.834l22.471-8.389.606-.227.6-.227,3.384-1.269.41-.152.406-.152,2.772-1.036.376-.139.362-.135,2.369-.887.135-.051.085-.03.132-.051.085-.03.132-.051,16.952-6.312a4.711,4.711,0,0,1,1.855-.379,5.019,5.019,0,0,1,2.031.44,5.147,5.147,0,0,1,1.306.839,5.273,5.273,0,0,1,1.628,2.545l7.489,12.583.166.278.159.271,28.136,47.267.315.528.311.525,3.421,5.753.365.616.359.6,1.821,3.046a4.8,4.8,0,0,1-2.613,5.834ZM93.171,111.532c-.064.244-.132.487-.206.728l2.369-.887v-.657Zm-7.929,3.611,3.384-1.269c.051-.234.1-.47.146-.7l-2.971,1.11c-.176.288-.376.575-.558.863ZM63.959,149.259l1.161,4.024c.338.382.653.761.975,1.151L64.808,150C64.527,149.76,64.24,149.516,63.959,149.259Z" transform="translate(-38.064 -68.295)" fill="#fff"/>
        <path id="Path_596" data-name="Path 596" d="M68.99,199.827a6.037,6.037,0,0,1-5.5-3.672L30.112,116.731a5.415,5.415,0,0,1,2.281-6.873L91,78.747a5.533,5.533,0,0,1,2.677-.677,6.034,6.034,0,0,1,5.476,3.625l42.641,72.927.017.037a5.415,5.415,0,0,1-2.284,6.873l-67.85,37.605a5.547,5.547,0,0,1-2.684.677Z" transform="translate(-19.639 -51.65)" fill="#e5a624"/>
        <path id="Path_597" data-name="Path 597" d="M141.2,153.2l-.034-.074-.041-.071-1.905-3.259-.318-.548-.338-.572-28.282-48.35-.162-.278-.159-.274-8.67-14.826-.748-1.283-2.031-3.476a6.64,6.64,0,0,0-2.8-3.1l-.118-.064a6.484,6.484,0,0,0-3.117-.805,6.156,6.156,0,0,0-2.985.768l-7.635,4.061-.4.217-.362.19-3.875,2.058-.338.176-.108.058-.2.1L76.3,84l-.43.23L30.914,108.089h0a6.024,6.024,0,0,0-2.572,7.652l11.787,28.045.1.24.095.23,1.76,4.18.152.369.132.311,8.857,21.077.02.051v.02l1.564,3.723,2.45,5.834v.064l.159.382,5.286,12.572.978,2.332a6.562,6.562,0,0,0,1.408,2.061,6.768,6.768,0,0,0,2.866,1.719c.125.037.25.068.376.1h0a6.539,6.539,0,0,0,1.432.162,6.17,6.17,0,0,0,2.982-.768l2.778-1.54,5.334-2.954,59.759-33.111a5.811,5.811,0,0,0,2.129-2.031,5.3,5.3,0,0,0,.338-.626,5.644,5.644,0,0,0,.284-.717A6.173,6.173,0,0,0,141.2,153.2Zm-.887,3.662a4.176,4.176,0,0,1-.264.748,4.64,4.64,0,0,1-2,2.166l-63.163,35-4.707,2.609a4.617,4.617,0,0,1-.572.267h0a4.937,4.937,0,0,1-1.811.338,5.277,5.277,0,0,1-1.083-.115,4.686,4.686,0,0,1-.487-.129,5.391,5.391,0,0,1-3.384-3.046l-.4-.958-2.054-4.917-4.64-11.036-.051-.125-.02-.047-.02-.051-2.45-5.828-1.618-3.855-.034-.081v-.02l-7.107-16.938-.085-.2-.085-.206-2.318-5.516-.081-.186-.078-.193L29.469,115.271a4.775,4.775,0,0,1,2.031-6.092L75.055,86.058l.372-.2.386-.206.467-.244.274-.149.284-.149,2.707-1.448.315-.166.338-.179,9.882-5.246a4.9,4.9,0,0,1,2.386-.613,5.31,5.31,0,0,1,2.46.613c.034,0,.064.034.1.051a5.354,5.354,0,0,1,2.369,2.63l2.247,3.787.765,1.3,8.762,14.979.166.284.162.284L137.7,149.6l.315.538.315.535,1.753,3a5.005,5.005,0,0,1,.393,2.244A4.653,4.653,0,0,1,140.309,156.859Z" transform="translate(-18.438 -50.426)" fill="#fff"/>
        <path id="Path_598" data-name="Path 598" d="M49.483,175.691a5.977,5.977,0,0,1-5.262-3.025L2.5,97.092A5.526,5.526,0,0,1,4.256,89.88L71.693,43.016a6.092,6.092,0,0,1,3.489-1.086,5.977,5.977,0,0,1,5.262,3.025l41.724,75.573a5.533,5.533,0,0,1-1.756,7.212L52.989,174.614A6.092,6.092,0,0,1,49.5,175.7Z" transform="translate(-1.229 -27.74)" fill="#1a2d59"/>
        <path id="Path_599" data-name="Path 599" d="M121.529,119.029,95.873,72.561l-.278-.5-2.762-5-.179-.338-.074-.139-.162-.291-5.181-9.378-.677-1.195-5.246-9.53-.176-.338-1.333-2.393a6.149,6.149,0,0,0-.948-1.289c-.058-.064-.122-.129-.186-.19a6.768,6.768,0,0,0-8.5-.677L2.743,88.175A6.139,6.139,0,0,0,.8,96.186l32.83,59.491,2.535,4.586h0l.47.849,5.875,10.64a6.552,6.552,0,0,0,5.076,3.3h.118c.2,0,.4.027.6.027a6.637,6.637,0,0,0,1.922-.277,6.328,6.328,0,0,0,1.228-.5l.037-.017a6.485,6.485,0,0,0,.653-.4l.968-.677,3.384-2.369L118.24,127.97l.5-.338.5-.338.338-.237c.118-.081.23-.166.338-.254a5.5,5.5,0,0,0,.467-.413,5.657,5.657,0,0,0,.437-.467A6.092,6.092,0,0,0,121.529,119.029Zm-2.643,7-.267.186-.5.338-.5.338L51.449,172.9a5.486,5.486,0,0,1-3.141.978h-.474a5.594,5.594,0,0,1-1.729-.43,5.134,5.134,0,0,1-.995-.558h0a5.11,5.11,0,0,1-1.52-1.692l-1.222-2.217-5.537-10.027-.321-.579h0l-2.586-4.684-2.031-3.652-.1-.19h0L1.86,95.594A4.883,4.883,0,0,1,3.42,89.18L70.867,42.316a5.533,5.533,0,0,1,7.107.677.886.886,0,0,1,.095.1,1.212,1.212,0,0,1,.088.1.471.471,0,0,1,.051.064c.058.064.108.132.159.2a1.943,1.943,0,0,1,.122.169,1.533,1.533,0,0,1,.1.156q.081.122.152.254l1.719,3.144.159.288,5.036,9.087.677,1.218,5.032,9.117h0l.081.149.081.146h0l.085.152.088.162,2.954,5.347.139.254.142.257,25.541,46.262a4.812,4.812,0,0,1-.291,5.144,4.482,4.482,0,0,1-.41.508,4.641,4.641,0,0,1-.457.437A4.808,4.808,0,0,1,118.886,126.031Z" transform="translate(-0.054 -26.536)" fill="#fff"/>
        <g id="Path_600" data-name="Path 600" transform="translate(-41.757 -32.391)" fill="#fff">
          <path d="M 78.24657440185547 164.541748046875 L 78.07420349121094 164.2294921875 L 75.48865509033203 159.5457000732422 L 73.45831298828125 155.8944702148438 L 73.42927551269531 155.8422393798828 L 73.45169067382812 155.7868499755859 C 73.91670227050781 154.6377716064453 74.24542999267578 153.4335632324219 74.42874145507812 152.2076568603516 C 74.43881225585938 152.1414794921875 74.44944763183594 152.0749816894531 74.46015930175781 152.0078887939453 C 74.47474670410156 151.9167022705078 74.489501953125 151.8243713378906 74.50312805175781 151.7309265136719 C 74.53823089599609 151.4886779785156 74.56796264648438 151.2586212158203 74.59397125244141 151.0276794433594 C 74.64395904541016 150.6144256591797 74.68476104736328 150.1849822998047 74.71534729003906 149.7502593994141 C 74.99211883544922 146.1554870605469 74.67233276367188 142.2565155029297 73.88084411621094 139.5740661621094 C 72.94528961181641 136.4103393554688 70.96457672119141 135.0560760498047 68.86756134033203 133.6222686767578 C 68.43675994873047 133.3277282714844 67.99128723144531 133.0231628417969 67.55419921875 132.7017364501953 C 67.20619964599609 132.4460601806641 66.87262725830078 132.1750183105469 66.56079864501953 131.9193115234375 C 66.43759918212891 131.8157043457031 66.30747222900391 131.6959075927734 66.18161773681641 131.580078125 C 66.08730316162109 131.4932403564453 65.99819946289062 131.4112243652344 65.92570495605469 131.3489074707031 C 65.77079010009766 131.2156677246094 65.63021850585938 131.0615997314453 65.49425506591797 130.9126129150391 L 65.44127655029297 130.8546295166016 C 63.36035919189453 128.61181640625 63.02020263671875 126.4964599609375 62.96553039550781 125.9015731811523 L 62.96500015258789 125.8958587646484 L 62.96500015258789 125.8901290893555 L 62.96500015258789 125.7750701904297 L 62.96500015258789 125.7006149291992 L 62.96500015258789 125.4636611938477 L 63.16057205200195 125.5974426269531 L 63.22487258911133 125.6414260864258 L 63.23058700561523 125.6453323364258 L 63.2358283996582 125.6498413085938 C 63.25628662109375 125.6674423217773 63.27862930297852 125.6829147338867 63.30227279663086 125.6958465576172 L 63.30884552001953 125.6994400024414 L 63.3149299621582 125.7038040161133 C 63.41027450561523 125.7718887329102 63.5087890625 125.8325042724609 63.60102844238281 125.8878555297852 C 63.86238861083984 126.0427169799805 64.13814544677734 126.180046081543 64.4200439453125 126.295654296875 C 64.67173004150391 126.4027862548828 64.93051910400391 126.4968719482422 65.19074249267578 126.5759735107422 C 66.30390167236328 126.8924560546875 67.45734405517578 127.0532455444336 68.61685943603516 127.0532455444336 C 68.77959442138672 127.0532302856445 68.94404602050781 127.0500106811523 69.10736846923828 127.0436325073242 C 69.10635375976562 127.0390243530273 69.10529327392578 127.034423828125 69.10417175292969 127.0298461914062 C 68.80087280273438 125.5576705932617 65.27690124511719 121.5273284912109 64.57354736328125 120.7342834472656 L 64.43084716796875 120.5712127685547 L 64.38614654541016 120.5234146118164 L 64.18988800048828 120.3131256103516 L 64.47753143310547 120.3131256103516 L 64.54521942138672 120.3131256103516 L 64.55339050292969 120.3131256103516 L 64.56147003173828 120.3141860961914 L 64.76789855957031 120.3412704467773 C 66.43038940429688 120.519645690918 68.03527069091797 120.9883575439453 69.53507232666016 121.7340469360352 C 69.78793334960938 121.8620147705078 70.04610443115234 122.0072326660156 70.30318450927734 122.1660461425781 C 70.5799560546875 122.3339691162109 70.85218811035156 122.5185317993164 71.11142730712891 122.7140579223633 C 71.50879669189453 123.0073165893555 71.88154602050781 123.34033203125 72.21864318847656 123.7033615112305 C 72.02404022216797 122.160285949707 71.48345947265625 121.1201858520508 69.84294128417969 119.1162414550781 C 69.74333190917969 118.9973983764648 69.64087677001953 118.8739852905273 69.53531646728516 118.746826171875 C 69.32595825195312 118.4946441650391 69.10945892333984 118.2338714599609 68.87005615234375 117.9541854858398 L 68.068115234375 117.0202865600586 L 67.90488433837891 116.8264617919922 C 66.07360076904297 114.6235122680664 65.00035858154297 111.9337997436523 64.42241668701172 110.0652160644531 C 64.31581878662109 109.7306289672852 64.21614074707031 109.3869323730469 64.12648773193359 109.0447006225586 L 64.36219024658203 108.9635314941406 C 64.49585723876953 109.2736129760742 64.66141510009766 109.5713882446289 64.85425567626953 109.8485870361328 C 65.41255950927734 110.6112747192383 66.0504150390625 111.3247756958008 66.74837493896484 111.9668045043945 C 67.02203369140625 112.2335433959961 67.34709930419922 112.538444519043 67.62055969238281 112.784912109375 C 67.88761901855469 113.0256118774414 68.16817474365234 113.2730331420898 68.47824096679688 113.5413131713867 C 69.17018890380859 114.1324844360352 69.93870544433594 114.763427734375 70.76185607910156 115.416145324707 C 74.03703308105469 118.0007400512695 76.08531951904297 122.4900741577148 76.81391906738281 124.3002471923828 C 76.82323455810547 124.3235397338867 76.83230590820312 124.3462448120117 76.84111785888672 124.3683624267578 C 76.84113311767578 124.3475875854492 76.84088134765625 124.3268127441406 76.84036254882812 124.3060607910156 C 76.81478881835938 122.5774688720703 75.38538360595703 120.0759735107422 73.87205505371094 117.4275970458984 C 72.64662933349609 115.283073425293 71.37948608398438 113.0655288696289 70.87164306640625 111.2188262939453 C 70.33409118652344 109.2569885253906 70.45238494873047 107.1092834472656 71.22319793701172 104.8352584838867 C 71.78964233398438 103.1641616821289 72.71367645263672 101.4120864868164 73.96958923339844 99.62770080566406 C 75.60884857177734 97.30260467529297 75.18318176269531 93.41667175292969 75.0093994140625 92.25881958007812 C 74.98868560791016 92.20032501220703 74.98612213134766 92.14899444580078 74.98580169677734 92.10843658447266 C 74.94303131103516 91.94479370117188 74.94175720214844 91.84880828857422 74.94175720214844 91.83810424804688 L 74.94175720214844 91.69357299804688 L 75.08478546142578 91.71440124511719 C 75.17301940917969 91.72727203369141 75.25844573974609 91.75338745117188 75.33869171142578 91.79204559326172 C 75.40163421630859 91.81910705566406 75.46270751953125 91.85160827636719 75.52025604248047 91.888671875 C 76.27125549316406 92.39006042480469 76.79918670654297 93.82444000244141 77.04718780517578 94.63494110107422 C 77.42546081542969 95.87113189697266 77.67811584472656 97.32244110107422 77.72307586669922 98.5172119140625 C 77.76994323730469 99.96014404296875 78.47969818115234 101.9065017700195 79.06685638427734 103.2853164672852 C 79.1279296875 103.42578125 79.187744140625 103.5609741210938 79.24559020996094 103.6899337768555 C 79.22629547119141 103.5441665649414 79.21199035644531 103.3976440429688 79.20274353027344 103.2507553100586 C 78.80724334716797 98.95974731445312 80.20090484619141 90.00748443603516 83.20344543457031 86.30067443847656 C 84.65216064453125 84.50244140625 86.38774108886719 82.10647583007812 88.22234344482422 79.37204742431641 C 88.32037353515625 79.2266845703125 88.41570281982422 79.08241271972656 88.51103210449219 78.93814086914062 C 88.60691833496094 78.79306030273438 88.70278930664062 78.64797210693359 88.80121612548828 78.50202941894531 C 88.97026062011719 78.25138854980469 89.13578796386719 77.99839782714844 89.29587554931641 77.75374603271484 L 89.37221527099609 77.63710021972656 C 90.88284301757812 75.33368682861328 92.13459014892578 73.30158996582031 92.80706024169922 72.20986175537109 L 92.96443176269531 71.95447540283203 C 93.02707672119141 71.85005950927734 93.08637237548828 71.74964141845703 93.13690185546875 71.66410064697266 C 93.20997619628906 71.54037475585938 93.26275634765625 71.45098876953125 93.28829956054688 71.41267395019531 C 93.30157470703125 71.39274597167969 93.3125 71.36928558349609 93.32047271728516 71.35215759277344 C 93.33401489257812 71.32307434082031 93.36571502685547 71.25497436523438 93.44779968261719 71.25497436523438 C 93.5093994140625 71.25497436523438 93.57485961914062 71.30251312255859 93.57485961914062 71.39061737060547 L 93.57485961914062 71.49891662597656 L 93.57485961914062 72.11145782470703 C 93.53710174560547 73.55139923095703 93.38841247558594 74.99698638916016 93.13291931152344 76.41134643554688 C 93.10739898681641 76.55807495117188 93.07861328125 76.70795440673828 93.05075836181641 76.85291290283203 C 93.03400421142578 76.94020080566406 93.01717376708984 77.02780151367188 93.00081634521484 77.11585998535156 C 92.95768737792969 77.34811401367188 92.91094207763672 77.57959747314453 92.85793304443359 77.82350158691406 C 92.15274810791016 81.00977325439453 91.18867492675781 84.16438293457031 89.99241638183594 87.20014190673828 C 89.94615173339844 87.31976318359375 89.90070343017578 87.43596649169922 89.85630035400391 87.54847717285156 C 89.92921447753906 87.44545745849609 90.00685119628906 87.33721923828125 90.08967590332031 87.22306060791016 C 90.30854797363281 86.91661834716797 90.54720306396484 86.59151458740234 90.79988861083984 86.24734497070312 C 92.49761962890625 83.93474578857422 94.82274627685547 80.76753997802734 96.16301727294922 76.43006134033203 C 96.24057006835938 76.17977142333984 96.31387329101562 75.92847442626953 96.37501525878906 75.70321655273438 C 96.42417144775391 75.52210235595703 96.47566986083984 75.31772613525391 96.5211181640625 75.13739776611328 L 96.56063079833984 74.98095703125 C 96.6142578125 74.76981353759766 96.66217041015625 74.54735565185547 96.70850372314453 74.33224487304688 C 97.14804077148438 72.09518432617188 97.78538513183594 69.87932586669922 98.60237121582031 67.74842834472656 C 98.74123382568359 67.40917205810547 98.87537384033203 67.10307312011719 99.00211334228516 66.83601379394531 C 99.17891693115234 66.45904541015625 99.34465789794922 66.14215850830078 99.50859069824219 65.86775970458984 C 99.63693237304688 65.64497375488281 99.78078460693359 65.42569732666016 99.93518829345703 65.21772766113281 C 100.0685729980469 65.03074645996094 100.2253723144531 64.85733032226562 100.3998184204102 64.70421600341797 L 100.4039154052734 64.70061492919922 L 100.408332824707 64.69737243652344 L 100.4590911865234 64.66012573242188 L 100.6435165405273 64.81938934326172 L 100.6130599975586 64.87693023681641 C 100.5184707641602 65.07176971435547 100.435302734375 65.27915954589844 100.3677749633789 65.489501953125 L 100.3524856567383 65.53907012939453 C 100.3402862548828 65.57887268066406 100.3275604248047 65.62033081054688 100.3131866455078 65.66344451904297 C 100.234504699707 65.93355560302734 100.1564025878906 66.27224731445312 100.1169738769531 66.44968414306641 C 100.0599746704102 66.70619964599609 100.0102615356445 66.98087310791016 99.96916198730469 67.21572875976562 C 99.64243316650391 69.46815490722656 99.45043182373047 71.76763153076172 99.39907073974609 74.04666137695312 L 99.39900207519531 74.04991149902344 L 99.39875793457031 74.05314636230469 C 99.38613128662109 74.22219848632812 99.38311767578125 74.38880157470703 99.38240051269531 74.55164337158203 C 99.41957092285156 74.34817504882812 99.46035766601562 74.13095092773438 99.50707244873047 73.90666961669922 C 100.1657562255859 70.85475921630859 101.3684005737305 67.98488616943359 103.0817718505859 65.37591552734375 C 103.3118286132812 65.01730346679688 103.5473556518555 64.67047119140625 103.8223037719727 64.28554534912109 C 104.0906448364258 63.90985870361328 104.3810272216797 63.52342987060547 104.6854019165039 63.13698577880859 C 106.5379180908203 60.82615661621094 108.6887893676758 58.76900100708008 111.0789413452148 57.02181625366211 C 114.8868179321289 54.19565963745117 117.7746124267578 51.45820236206055 119.6613845825195 48.88605880737305 L 119.7491989135742 48.76634216308594 L 119.8522033691406 48.87327194213867 C 119.8834915161133 48.9057502746582 119.9133529663086 48.94018173217773 119.9410400390625 48.97570419311523 C 119.961799621582 48.99703598022461 119.9811477661133 49.02004623413086 119.9986801147461 49.04424667358398 C 120.0580673217773 49.11117172241211 120.10986328125 49.18024826049805 120.1599884033203 49.24711608886719 C 120.2035751342773 49.3011589050293 120.247200012207 49.36175918579102 120.2870330810547 49.4238166809082 C 120.2947006225586 49.43528747558594 120.3038177490234 49.44860076904297 120.31298828125 49.46198654174805 C 120.3388671875 49.49977874755859 120.365592956543 49.53881454467773 120.3898620605469 49.58143615722656 C 120.4450912475586 49.66456604003906 120.4975204467773 49.75205993652344 120.5456848144531 49.84154510498047 L 122.2744140625 52.97420120239258 L 122.4334182739258 53.26177215576172 L 127.4455184936523 62.34851455688477 L 128.1221771240234 63.5665168762207 L 133.1614227294922 72.69064331054688 L 133.2429656982422 72.84012603759766 L 133.301513671875 72.94747161865234 L 133.1954803466797 73.00836944580078 C 133.0191650390625 73.10966491699219 132.8529815673828 73.20944976806641 132.6982574462891 73.30693817138672 L 133.2477722167969 73.07894134521484 L 133.3518829345703 73.03574371337891 L 133.4055938720703 73.13485717773438 L 133.4935913085938 73.29731750488281 L 136.447509765625 78.64345550537109 L 136.5785369873047 78.87190246582031 L 136.6308441162109 78.96311187744141 L 136.5499267578125 79.0302734375 C 135.6583251953125 79.77030181884766 134.8121185302734 80.58138275146484 134.0347900390625 81.44101715087891 L 134.0214385986328 81.45706176757812 C 133.8534393310547 81.65735626220703 133.6630249023438 81.8843994140625 133.5270233154297 82.0625 C 133.4672698974609 82.1407470703125 133.4105224609375 82.21420288085938 133.354736328125 82.28639984130859 C 133.2779388427734 82.38577270507812 133.2030334472656 82.48272705078125 133.1246948242188 82.58650207519531 C 133.0369415283203 82.70278930664062 132.9507446289062 82.82231140136719 132.8673858642578 82.93792724609375 C 132.8224945068359 83.00016021728516 132.7779235839844 83.06200408935547 132.7333221435547 83.12303161621094 C 132.6283721923828 83.26892852783203 132.5243530273438 83.41458892822266 132.4214324951172 83.5587158203125 C 132.2501983642578 83.79851531982422 132.0884552001953 84.02501678466797 131.9245452880859 84.24988555908203 C 131.7735443115234 84.47067260742188 131.649169921875 84.63750457763672 131.5234527587891 84.78777313232422 C 131.4618225097656 84.86142730712891 131.40087890625 84.93710327148438 131.3399963378906 85.01267242431641 C 131.2650604248047 85.10569763183594 131.1875610351562 85.201904296875 131.1097564697266 85.29298400878906 C 130.4374237060547 86.12070465087891 129.5677032470703 86.79622650146484 128.5965728759766 87.24415588378906 C 128.013671875 87.50237274169922 127.1934585571289 87.82211303710938 126.2437438964844 88.19234466552734 C 123.5234451293945 89.25278472900391 119.7978744506836 90.70511627197266 118.1332015991211 92.09317016601562 C 118.0665817260742 92.14692687988281 118.0020141601562 92.20299530029297 117.9396438598633 92.26123046875 L 118.1821899414062 92.17105865478516 C 118.9312896728516 91.89487457275391 125.5688018798828 89.46199798583984 128.0194854736328 89.05480194091797 C 128.1893920898438 89.02284240722656 128.3656921386719 89.00395202636719 128.541015625 88.99910736083984 C 128.5640563964844 88.99732208251953 128.5871429443359 88.99642944335938 128.6102294921875 88.99642944335938 C 128.6345062255859 88.99642944335938 128.6587677001953 88.99741363525391 128.6829833984375 88.9993896484375 L 129.0063781738281 89.02578735351562 L 128.7488555908203 89.22317504882812 L 128.6473236083984 89.30100250244141 C 128.5766906738281 89.35697174072266 128.4423065185547 89.46341705322266 128.271484375 89.61374664306641 C 126.0307464599609 91.63491821289062 124.2336883544922 94.17755889892578 123.0757141113281 96.96577453613281 C 121.1673126220703 101.4780426025391 117.1308898925781 104.5851974487305 115.4840316772461 105.7116851806641 C 115.2836303710938 105.8526077270508 115.0799407958984 105.9893417358398 114.873291015625 106.121696472168 C 115.082893371582 106.0288391113281 115.2971954345703 105.9324798583984 115.5136871337891 105.8332977294922 C 116.657844543457 105.3368759155273 117.7664184570312 104.7423858642578 118.8109130859375 104.0653305053711 C 119.0192337036133 103.926887512207 119.2136764526367 103.7642974853516 119.3876571655273 103.5828323364258 L 119.3910140991211 103.579345703125 L 119.3946151733398 103.5761184692383 C 119.4114456176758 103.5610885620117 119.4271469116211 103.5445327758789 119.441276550293 103.5269012451172 L 119.6592483520508 103.6385726928711 C 119.6504898071289 103.6700439453125 119.6400299072266 103.7013854980469 119.6281890869141 103.7317276000977 C 119.5371170043945 103.9882736206055 119.4199981689453 104.2412567138672 119.2814331054688 104.4800186157227 C 118.8061294555664 105.3149261474609 117.8188018798828 106.608268737793 115.8172760009766 108.0232696533203 C 113.4045562744141 109.7289733886719 110.1511840820312 111.1659317016602 106.1475143432617 112.2942276000977 C 105.9657745361328 112.3454132080078 105.7807083129883 112.3964614868164 105.5928649902344 112.4472351074219 C 105.7677459716797 112.4369812011719 105.9582748413086 112.4250946044922 106.1627578735352 112.4113159179688 C 109.1091842651367 112.2151031494141 114.4507446289062 111.6586608886719 117.1215133666992 110.1363143920898 C 117.367546081543 109.9996719360352 117.6016159057617 109.8410263061523 117.818473815918 109.6641006469727 L 117.8755569458008 109.6170883178711 L 118.0668334960938 109.7694702148438 L 118.0330047607422 109.837158203125 L 118.0314712524414 109.840217590332 L 118.0297698974609 109.8432006835938 C 117.8814468383789 110.1033020019531 117.7144317626953 110.3561172485352 117.5333862304688 110.5946044921875 C 116.6781997680664 111.7428283691406 114.6709442138672 113.8447875976562 110.8439712524414 115.0110015869141 C 109.1572570800781 115.5245971679688 107.7818145751953 115.8787612915039 106.5682907104492 116.1912155151367 C 104.2167129516602 116.7967147827148 102.6631851196289 117.1967163085938 101.0936050415039 118.1818542480469 C 101.024169921875 118.2261428833008 100.9568252563477 118.2699813842773 100.8912200927734 118.313591003418 C 100.9664154052734 118.3026275634766 101.0474319458008 118.2914199829102 101.1328582763672 118.2803115844727 C 101.7191009521484 118.2198867797852 102.3117446899414 118.1894454956055 102.8976440429688 118.1894454956055 C 105.6413040161133 118.1894454956055 108.3788452148438 118.8572845458984 110.8143310546875 120.1207733154297 C 111.0440979003906 120.2338256835938 111.2555618286133 120.3457183837891 111.4584121704102 120.4616470336914 L 111.4996185302734 120.483757019043 L 111.4403839111328 120.7188415527344 L 111.3896331787109 120.7188415527344 L 111.3837890625 120.7188415527344 L 111.3779754638672 120.7182998657227 L 111.3675155639648 120.7173156738281 C 111.2512054443359 120.706413269043 111.0091552734375 120.6837310791016 110.6561737060547 120.657585144043 C 110.0049591064453 120.6128616333008 109.3206024169922 120.5901565551758 108.6227569580078 120.5901565551758 C 106.6921997070312 120.5901565551758 103.7924423217773 120.7712554931641 100.9415054321289 121.6340179443359 L 100.8401412963867 121.6670379638672 L 100.9626998901367 121.6976547241211 C 102.3222885131836 122.0506744384766 105.6472625732422 123.0179901123047 107.1780853271484 124.3787307739258 L 107.3083419799805 124.4987030029297 C 107.3476028442383 124.5344009399414 107.3846435546875 124.5714263916016 107.4210052490234 124.6113739013672 L 107.5652847290039 124.7698974609375 L 107.3562622070312 124.8173980712891 L 107.2073440551758 124.8512420654297 L 107.0418853759766 124.8943328857422 C 105.6382446289062 125.2676544189453 103.0388412475586 126.1446685791016 101.4077911376953 127.8217315673828 C 101.3858795166016 127.8428802490234 101.3664932250977 127.8633117675781 101.3485488891602 127.8840560913086 L 101.4443893432617 127.9178848266602 C 101.9955596923828 128.1052703857422 103.4479446411133 128.6434326171875 104.9968338012695 129.5811614990234 C 106.9060287475586 130.7370147705078 108.2954711914062 132.0821990966797 109.1265563964844 133.5793609619141 C 109.2971267700195 133.8866119384766 109.459602355957 134.1811370849609 109.6154022216797 134.4635772705078 C 111.2172317504883 137.3672637939453 112.0995864868164 138.9667510986328 113.8200302124023 140.0105438232422 C 114.1161422729492 140.1869812011719 114.4278182983398 140.3462066650391 114.7454986572266 140.4832153320312 L 114.7129135131836 140.6410675048828 L 114.7129135131836 140.7230072021484 L 114.6959991455078 140.7230072021484 L 114.6822738647461 140.7230072021484 L 114.6654891967773 140.7200164794922 C 114.5372467041016 140.6915130615234 114.1584854125977 140.5985412597656 113.6429138183594 140.4507904052734 C 111.4664154052734 139.8381805419922 107.4652481079102 138.4612731933594 105.12841796875 136.1244354248047 C 103.6616134643555 134.6687774658203 101.4533309936523 133.8669128417969 98.91069030761719 133.8669128417969 C 96.83812713623047 133.8669128417969 94.73381805419922 134.4020538330078 93.13729095458984 135.3351287841797 L 93.12751770019531 135.34130859375 L 93.14744567871094 135.35791015625 C 94.13604736328125 136.1201324462891 99.07146453857422 140.1791381835938 98.80686187744141 144.9737091064453 L 98.80686950683594 145.1484375 C 98.80867767333984 145.1737213134766 98.80851745605469 145.1992340087891 98.80642700195312 145.2244110107422 L 98.77651977539062 145.5841979980469 L 98.57756042480469 145.2829437255859 C 98.57024383544922 145.2718658447266 98.56198883056641 145.2613677978516 98.55303192138672 145.251708984375 L 98.54718780517578 145.2454223632812 L 98.54225921630859 145.2383728027344 C 98.52157592773438 145.2088470458984 98.48400115966797 145.1616973876953 98.43058776855469 145.0982818603516 C 97.78587341308594 144.3232269287109 95.30567169189453 141.7872772216797 90.43828582763672 141.6705017089844 C 90.34996032714844 141.6683349609375 90.26291656494141 141.6672668457031 90.17580413818359 141.6672668457031 C 87.96627044677734 141.6672668457031 85.864013671875 142.3453216552734 83.92745971679688 143.6825561523438 C 82.40547180175781 144.7335205078125 81.52210235595703 145.8472900390625 81.42638397216797 145.9708251953125 L 81.42535400390625 145.9722137451172 L 81.35939025878906 146.3554077148438 L 80.10723114013672 153.6652221679688 L 79.87034606933594 155.0460510253906 L 79.63687133789062 156.4264984130859 L 79.47435760498047 157.3677368164062 L 79.09535980224609 159.5774993896484 L 78.9058837890625 160.6973876953125 L 78.71294403076172 161.8212585449219 L 78.30683135986328 164.190185546875 L 78.24657440185547 164.541748046875 Z" stroke="none"/>
          <path d="M 119.7621765136719 48.95999145507812 C 118.1411285400391 51.16989135742188 115.4845123291016 53.90771484375 111.152717590332 57.12272644042969 C 108.7706985473633 58.86395263671875 106.6291427612305 60.91220092773438 104.7835998535156 63.21432495117188 C 104.4823989868164 63.59674072265625 104.1947479248047 63.97917175292969 103.9240188598633 64.35820007324219 C 103.6532897949219 64.73724365234375 103.416389465332 65.0858154296875 103.1862564086914 65.44453430175781 C 101.4879837036133 68.030517578125 100.2821426391602 70.90802001953125 99.62944793701172 73.93215942382812 C 99.57868957519531 74.17582702636719 99.53467559814453 74.4127197265625 99.49407196044922 74.63607788085938 C 99.45346069335938 74.85943603515625 99.41622924804688 75.10986328125 99.38916015625 75.31292724609375 C 99.30971527099609 75.8592529296875 99.25890350341797 76.40939331054688 99.23686218261719 76.96102905273438 C 99.23686981201172 76.56509399414062 99.23686981201172 76.016845703125 99.25717163085938 75.36367797851562 C 99.25717163085938 75.16738891601562 99.25717163085938 74.96096801757812 99.25717163085938 74.744384765625 C 99.25884246826172 74.73089599609375 99.25884246826172 74.71725463867188 99.25717163085938 74.70375061035156 C 99.25717163085938 74.49055480957031 99.25717163085938 74.27058410644531 99.27410125732422 74.04385375976562 C 99.32577514648438 71.75112915039062 99.51676940917969 69.46368408203125 99.84603118896484 67.19416809082031 C 99.89341735839844 66.92343139648438 99.94080352783203 66.66622924804688 99.99494171142578 66.42257690429688 C 100.0490875244141 66.17889404296875 100.1235427856445 65.8675537109375 100.1946029663086 65.6239013671875 C 100.2149124145508 65.56298828125 100.2318267822266 65.50544738769531 100.2487564086914 65.4512939453125 C 100.3183135986328 65.234619140625 100.4031295776367 65.02314758300781 100.502571105957 64.81845092773438 L 100.5330276489258 64.76092529296875 L 100.4822769165039 64.79815673828125 C 100.3148422241211 64.94509887695312 100.1649475097656 65.11090087890625 100.0355606079102 65.292236328125 C 99.88343048095703 65.49716186523438 99.74331665039062 65.71070861816406 99.61589813232422 65.93185424804688 C 99.46022796630859 66.19244384765625 99.29440307617188 66.50717163085938 99.11504364013672 66.88958740234375 C 98.98870086669922 67.15582275390625 98.85671234130859 67.45701599121094 98.71908569335938 67.79318237304688 C 97.90237426757812 69.92338562011719 97.27057647705078 72.11996459960938 96.83070373535156 74.35855102539062 C 96.78331756591797 74.57853698730469 96.73593139648438 74.79850769042969 96.68178558349609 75.01171875 C 96.62764739990234 75.22494506835938 96.55994415283203 75.49905395507812 96.49564361572266 75.7359619140625 C 96.43134307861328 75.97283935546875 96.35690307617188 76.22666931152344 96.28244781494141 76.46694946289062 C 94.73584747314453 81.47219848632812 91.88295745849609 84.927490234375 90.19084167480469 87.29645538330078 C 89.81520080566406 87.81424713134766 89.49708557128906 88.27787017822266 89.25680541992188 88.69074249267578 C 89.42601776123047 88.28466033935547 89.63921356201172 87.76686096191406 89.87611389160156 87.15431213378906 C 91.07371520996094 84.11517333984375 92.02989959716797 80.98635864257812 92.73578643798828 77.79693603515625 C 92.78654479980469 77.56343078613281 92.83391571044922 77.32992553710938 92.87791442871094 77.09303283691406 C 92.92191314697266 76.85614013671875 92.96929931640625 76.62261962890625 93.00990295410156 76.38911437988281 C 93.26509857177734 74.97648620605469 93.41218566894531 73.54644775390625 93.44985961914062 72.1114501953125 C 93.44985961914062 71.90501403808594 93.44985961914062 71.70196533203125 93.44985961914062 71.4989013671875 C 93.44985961914062 71.46168518066406 93.44985961914062 71.42784118652344 93.44985961914062 71.390625 C 93.44985198974609 71.353271484375 93.43289947509766 71.42112731933594 93.39231872558594 71.48197937011719 C 93.35171508789062 71.54290771484375 93.22311401367188 71.76625061035156 93.07083129882812 72.02006530761719 C 92.44474792480469 73.03535461425781 91.11474609375 75.2080078125 89.47678375244141 77.70558166503906 C 89.29064178466797 77.98983764648438 89.10112762451172 78.2808837890625 88.90484619140625 78.57192993164062 C 88.70855712890625 78.86297607421875 88.52243041992188 79.150634765625 88.32614135742188 79.44168090820312 C 86.72540283203125 81.82756042480469 84.94191741943359 84.342041015625 83.30057525634766 86.37934112548828 C 80.28523254394531 90.10198974609375 78.94170379638672 99.05663299560547 79.32749938964844 103.2429122924805 C 79.36101531982422 103.7758712768555 79.46222686767578 104.3023986816406 79.62868499755859 104.8097991943359 C 79.46625518798828 104.4713897705078 79.22258758544922 103.9569854736328 78.95184326171875 103.3342895507812 C 78.34945678710938 101.9196853637695 77.64554595947266 99.98051452636719 77.59815979003906 98.52191162109375 C 77.51016998291016 96.18341827392578 76.61334228515625 92.76876068115234 75.45257568359375 91.99375915527344 C 75.39987182617188 91.95981597900391 75.34439849853516 91.93038940429688 75.2867431640625 91.90576934814453 C 75.21733093261719 91.87204742431641 75.14312744140625 91.84922790527344 75.06675720214844 91.83810424804688 C 75.06675720214844 91.83810424804688 75.06675720214844 91.92947387695312 75.11075592041016 92.09190368652344 C 75.11075592041016 92.13251495361328 75.11075592041016 92.176513671875 75.13105773925781 92.22727203369141 C 75.31719970703125 93.45912933349609 75.73005676269531 97.34760284423828 74.07180023193359 99.69964599609375 C 72.08525848388672 102.5220718383789 69.80429077148438 106.8505020141602 70.99217224121094 111.1856842041016 C 72.10895538330078 115.2467575073242 76.91793060302734 121.0980758666992 76.96531677246094 124.3029174804688 C 76.96987152099609 124.4844589233398 76.95514678955078 124.6659698486328 76.92131805419922 124.8443832397461 C 76.92131805419922 124.8714752197266 76.92131805419922 124.8985595703125 76.92131805419922 124.9256134033203 L 76.89086151123047 124.847770690918 C 76.86040496826172 124.7564010620117 76.79271697998047 124.5838165283203 76.69795989990234 124.3469009399414 C 76.04818725585938 122.7326431274414 73.99058532714844 118.1233291625977 70.6842041015625 115.5140838623047 C 69.856201171875 114.8575439453125 69.0936279296875 114.2314758300781 68.39645385742188 113.6358413696289 C 68.09527587890625 113.3752593994141 67.81098937988281 113.1248321533203 67.536865234375 112.8777694702148 C 67.26275634765625 112.6307144165039 66.93447875976562 112.3227691650391 66.66374206542969 112.0587997436523 C 65.95823669433594 111.4098281860352 65.31782531738281 110.6935043334961 64.75164794921875 109.9199752807617 C 64.55360412597656 109.6352996826172 64.38467407226562 109.3314590454102 64.24740600585938 109.0130157470703 C 64.32186889648438 109.2972717285156 64.41999816894531 109.6458587646484 64.54183959960938 110.0282745361328 C 65.09346008300781 111.8117599487305 66.166259765625 114.5394287109375 68.00050354003906 116.7459411621094 L 68.16294860839844 116.9388427734375 L 68.96501159667969 117.8729019165039 C 69.32711791992188 118.2959289550781 69.64186096191406 118.6817321777344 69.93965148925781 119.0370559692383 C 71.54379272460938 120.9965286254883 72.14955902099609 122.0828704833984 72.34922790527344 123.7411270141602 L 72.37969970703125 124.0355606079102 C 72.37969970703125 124.0524749755859 72.37969970703125 124.0727691650391 72.37969970703125 124.0896987915039 L 72.34585571289062 124.0457153320312 C 72.28230285644531 123.9622039794922 72.21451568603516 123.8820114135742 72.14279937744141 123.8054428100586 C 71.80609893798828 123.4406585693359 71.43557739257812 123.1086273193359 71.03616333007812 122.8138580322266 C 70.77920532226562 122.6200408935547 70.51264953613281 122.4393310546875 70.23748779296875 122.2723846435547 C 70.00735473632812 122.1302261352539 69.7535400390625 121.9847183227539 69.47941589355469 121.8459701538086 C 67.99774169921875 121.1092834472656 66.39692687988281 120.6417694091797 64.75164794921875 120.465217590332 L 64.54522705078125 120.4381256103516 L 64.47752380371094 120.4381256103516 L 64.52490234375 120.488899230957 L 64.66703796386719 120.6513442993164 C 65.5164794921875 121.6090698242188 68.92100524902344 125.5212554931641 69.2255859375 127.0001602172852 C 69.23860168457031 127.0533447265625 69.24540710449219 127.1078414916992 69.24591064453125 127.16259765625 C 67.86572265625 127.2313003540039 66.48356628417969 127.073486328125 65.15438842773438 126.6955718994141 C 64.88888549804688 126.614875793457 64.6279296875 126.5199890136719 64.37261962890625 126.4113006591797 C 64.084228515625 126.2930450439453 63.80485534667969 126.1539154052734 63.53671264648438 125.9950408935547 C 63.4351806640625 125.9341125488281 63.33705139160156 125.8731994628906 63.24229431152344 125.8055114746094 C 63.21090698242188 125.7883605957031 63.18141174316406 125.7679290771484 63.154296875 125.7445983886719 L 63.08998107910156 125.7005996704102 C 63.08998107910156 125.7005996704102 63.08998107910156 125.7243041992188 63.08998107910156 125.7750701904297 C 63.08998107910156 125.825813293457 63.08998107910156 125.8427581787109 63.08998107910156 125.8901290893555 C 63.14753723144531 126.5161972045898 63.48933410644531 128.5670471191406 65.53341674804688 130.7701721191406 C 65.68231201171875 130.9326324462891 65.83799743652344 131.1086120605469 66.0072021484375 131.2541198730469 C 66.17642211914062 131.3996276855469 66.42684936523438 131.643310546875 66.64004516601562 131.8226623535156 C 66.97848510742188 132.1001586914062 67.29658508300781 132.3573608398438 67.62825012207031 132.6010284423828 C 70.17318725585938 134.4725036621094 72.85687255859375 135.6705322265625 74.000732421875 139.5386962890625 C 74.80955505371094 142.2799072265625 75.11414337158203 146.1988220214844 74.84002685546875 149.759033203125 C 74.80955505371094 150.1922149658203 74.76894378662109 150.6220092773438 74.71818542480469 151.0416717529297 C 74.69111633300781 151.2819213867188 74.66065979003906 151.5154418945312 74.62681579589844 151.7489624023438 C 74.60312652587891 151.9114074707031 74.57604217529297 152.0704650878906 74.55237579345703 152.2261352539062 C 74.36737060546875 153.4632720947266 74.03680419921875 154.6741943359375 73.56755828857422 155.8337249755859 L 75.59809112548828 159.4852905273438 L 78.18363189697266 164.1690673828125 L 79.51363372802734 156.4056549072266 L 79.74714660644531 155.02490234375 L 81.30725860595703 145.9213409423828 L 81.32757568359375 145.8942718505859 C 81.61862182617188 145.5186309814453 84.94248962402344 141.4097595214844 90.4412841796875 141.5455474853516 C 95.37886047363281 141.6639862060547 97.90687561035156 144.2732238769531 98.52618408203125 145.0177612304688 C 98.58034515380859 145.0820617675781 98.62094116210938 145.1328277587891 98.64464569091797 145.1666717529297 C 98.65833282470703 145.1814117431641 98.6707763671875 145.197265625 98.68186187744141 145.2140502929688 C 98.68354797363281 145.1937866210938 98.68354797363281 145.1734161376953 98.68186950683594 145.1531372070312 C 98.68186187744141 145.0922241210938 98.68186187744141 145.0313110351562 98.68186187744141 144.9703979492188 C 98.94583129882812 140.2324829101562 94.02855682373047 136.1950988769531 93.06742858886719 135.4539489746094 L 93.00653076171875 135.4031982421875 L 92.90499877929688 135.3287353515625 L 93.00991821289062 135.267822265625 L 93.07421875 135.2272186279297 C 96.38059997558594 133.2948303222656 102.096549987793 132.9394836425781 105.2168045043945 136.0360412597656 C 107.5857620239258 138.4050140380859 111.741569519043 139.7857666015625 113.677360534668 140.3306274414062 C 114.2323608398438 140.4896850585938 114.6012420654297 140.5776977539062 114.6926193237305 140.5979919433594 L 114.7129135131836 140.5979919433594 L 114.6959991455078 140.5979919433594 C 114.3722991943359 140.4583892822266 114.0580291748047 140.2978515625 113.7551879882812 140.1174163818359 C 111.8363265991211 138.9532470703125 110.9429016113281 137.1088562011719 109.0172729492188 133.6400299072266 C 107.0916595458984 130.1711883544922 102.5872573852539 128.4384613037109 101.4027709960938 128.0357360839844 L 101.2877197265625 127.9951400756836 L 101.1218872070312 127.9443893432617 L 101.236946105957 127.8225555419922 C 101.2622756958008 127.7916412353516 101.2893981933594 127.7622756958008 101.3181762695312 127.7345581054688 C 103.1185836791992 125.8833847045898 106.0560836791992 125.0271835327148 107.0104293823242 124.7733612060547 L 107.1796417236328 124.7293548583984 L 107.3285598754883 124.6955184936523 C 107.2947006225586 124.658317565918 107.260856628418 124.6244583129883 107.2236480712891 124.5906143188477 L 107.0950469970703 124.4721603393555 C 105.5721435546875 123.1184692382812 102.2488327026367 122.1607437133789 100.9323883056641 121.8189315795898 L 100.3807601928711 121.6835708618164 L 100.4585876464844 121.6598892211914 L 100.9053039550781 121.5143737792969 C 104.9088439941406 120.3028182983398 108.9902114868164 120.4178771972656 110.6654052734375 120.5329284667969 C 111.0308990478516 120.5599975585938 111.2813339233398 120.5837020874023 111.3896331787109 120.5938415527344 L 111.4403839111328 120.5938415527344 L 111.3963851928711 120.5701751708984 C 111.1831893920898 120.4483261108398 110.969970703125 120.3366546630859 110.7567749023438 120.2317276000977 C 107.8010330200195 118.6983337402344 104.4612426757812 118.0630798339844 101.1489715576172 118.4042739868164 C 100.810546875 118.4482574462891 100.5533447265625 118.4922561645508 100.4450454711914 118.5159454345703 L 100.380744934082 118.5159454345703 L 100.4348983764648 118.4787139892578 C 100.6345748901367 118.3331832885742 100.8308410644531 118.2012023925781 101.0271453857422 118.0759887695312 C 103.4265441894531 116.5700149536133 105.8395004272461 116.4041900634766 110.8075332641602 114.8914260864258 C 114.5944747924805 113.7374114990234 116.5844039916992 111.6595001220703 117.4338302612305 110.5190124511719 C 117.6122283935547 110.2840118408203 117.775032043457 110.0375747680664 117.9211730957031 109.7812728881836 L 117.9550018310547 109.7135848999023 L 117.8974838256836 109.7609558105469 C 117.6742553710938 109.9430847167969 117.4352874755859 110.1050262451172 117.1834182739258 110.2449188232422 C 114.4760284423828 111.7881164550781 109.0172729492188 112.3465042114258 106.1711578369141 112.5360260009766 C 105.2168045043945 112.6003265380859 104.556884765625 112.6240005493164 104.3910598754883 112.6307830810547 L 104.3470458984375 112.6307830810547 L 104.3876419067383 112.6307830810547 C 104.9855270385742 112.4818725585938 105.5608596801758 112.32958984375 106.1136169433594 112.1739120483398 C 115.2882461547852 109.5883560180664 118.2697296142578 106.0044708251953 119.1733016967773 104.4172744750977 C 119.3083724975586 104.1845474243164 119.4216766357422 103.9398422241211 119.5117416381836 103.6862716674805 C 119.5221328735352 103.6596755981445 119.5311584472656 103.6325759887695 119.538818359375 103.6050567626953 C 119.5203323364258 103.6281280517578 119.4999465942383 103.6496429443359 119.4778900146484 103.6693420410156 C 119.2972183227539 103.8577880859375 119.0963287353516 104.0257415771484 118.8788986206055 104.1702117919922 C 117.8255157470703 104.85302734375 116.7173461914062 105.4473114013672 115.5657424926758 105.9469451904297 C 114.1917419433594 106.5764007568359 112.8854446411133 107.100959777832 112.3947296142578 107.3006286621094 C 113.4559173583984 106.8407592773438 114.4673843383789 106.2737731933594 115.413444519043 105.608512878418 C 118.2088012695312 103.6964263916016 121.400146484375 100.6066284179688 122.9602584838867 96.91783142089844 C 124.1328125 94.09452819824219 125.9188461303711 91.56751251220703 128.1889038085938 89.51991271972656 C 128.3580932617188 89.37101745605469 128.4901123046875 89.26609802246094 128.5712890625 89.20179748535156 L 128.6728210449219 89.12397003173828 C 128.6311492919922 89.12056732177734 128.5892791748047 89.12056732177734 128.547607421875 89.12397003173828 C 128.3772277832031 89.12851715087891 128.2074890136719 89.14661407470703 128.0399780273438 89.17811584472656 C 125.8402328491211 89.54361724853516 120.235969543457 91.54707336425781 118.2257461547852 92.28823089599609 L 117.4913711547852 92.5589599609375 C 117.5116577148438 92.53525543212891 117.5285873413086 92.51157379150391 117.5522766113281 92.48788452148438 C 117.7030715942383 92.30860137939453 117.8708190917969 92.14425659179688 118.0531463623047 91.99716949462891 C 120.3138046264648 90.11215972900391 126.2903289794922 88.12899780273438 128.5442199707031 87.13066101074219 C 129.5035095214844 86.68817138671875 130.3486328125 86.03176116943359 131.0147094726562 85.21179962158203 C 131.1534576416016 85.04937744140625 131.288818359375 84.87338256835938 131.4275817871094 84.70755004882812 C 131.5663299560547 84.54173278808594 131.6915588378906 84.369140625 131.8235321044922 84.17623901367188 C 132.0874938964844 83.81411743164062 132.3548583984375 83.43508911132812 132.6323852539062 83.04928588867188 C 132.7609710693359 82.87330627441406 132.8895721435547 82.6905517578125 133.0249328613281 82.51119995117188 C 133.1603088378906 82.33183288574219 133.2855224609375 82.17277526855469 133.4276733398438 81.98663330078125 C 133.5697937011719 81.80050659179688 133.7660980224609 81.56700134277344 133.9420776367188 81.357177734375 C 134.7259521484375 80.49029541015625 135.5707702636719 79.6805419921875 136.4700927734375 78.93408203125 L 136.3381042480469 78.70391845703125 L 133.2956695556641 73.19439697265625 L 132.34130859375 73.59036254882812 L 131.6847839355469 73.87124633789062 C 131.8573760986328 73.73249816894531 132.0469055175781 73.59036254882812 132.2567138671875 73.44821166992188 C 132.5206756591797 73.26547241210938 132.8150939941406 73.08273315429688 133.1332092285156 72.89997863769531 L 133.052001953125 72.75106811523438 L 128.0128784179688 63.62721252441406 L 127.3360443115234 62.40888977050781 L 120.4356307983398 49.90080261230469 C 120.3882598876953 49.81280517578125 120.3374710083008 49.72821044921875 120.283332824707 49.64698791503906 C 120.2528839111328 49.59283447265625 120.2156600952148 49.54208374023438 120.1818161010742 49.49131774902344 C 120.1442565917969 49.43276977539062 120.1035842895508 49.37628173828125 120.0599746704102 49.32209777832031 C 120.0092163085938 49.25442504882812 119.9584579467773 49.18672180175781 119.9009323120117 49.1224365234375 C 119.8847274780273 49.09950256347656 119.8666152954102 49.07798767089844 119.8467712402344 49.05813598632812 C 119.8204193115234 49.02386474609375 119.7921600341797 48.99111938476562 119.7621765136719 48.95999145507812 M 99.22332763671875 77.24656677246094 L 99.22332763671875 77.55308532714844 C 99.22402954101562 77.60188293457031 99.22453308105469 77.63163757324219 99.22332763671875 77.64125061035156 L 99.22332763671875 77.55308532714844 C 99.22237396240234 77.48599243164062 99.22105407714844 77.38290405273438 99.22332763671875 77.24656677246094 L 99.22332763671875 77.1065673828125 L 99.22671508789062 77.1065673828125 C 99.22514343261719 77.15652465820312 99.22405242919922 77.20323181152344 99.22332763671875 77.24656677246094 M 88.85070037841797 89.66541290283203 L 88.84731292724609 89.66541290283203 L 88.84731292724609 89.68910217285156 C 88.84731292724609 89.68910217285156 88.84731292724609 89.67217254638672 88.84731292724609 89.66541290283203 C 88.93918609619141 89.33151245117188 89.07820129394531 89.01244354248047 89.26018524169922 88.71782684326172 C 89.04358673095703 89.24575805664062 88.89468383789062 89.58419036865234 88.85070037841797 89.66541290283203 M 79.64222717285156 104.8504180908203 C 79.713134765625 104.9974746704102 79.76570129394531 105.1037826538086 79.79676055908203 105.1566772460938 C 79.80377197265625 105.16748046875 79.81092071533203 105.1781921386719 79.81819915771484 105.1888275146484 C 79.81289672851562 105.1827621459961 79.80572509765625 105.1719512939453 79.79676055908203 105.1566772460938 C 79.73431396484375 105.0605392456055 79.6824951171875 104.9578475952148 79.64222717285156 104.8504180908203 M 119.736213684082 48.57269287109375 L 119.9422302246094 48.78654479980469 C 119.9750061035156 48.82058715820312 120.0063323974609 48.85653686523438 120.0354843139648 48.89356994628906 C 120.0571441650391 48.916259765625 120.0774459838867 48.9404296875 120.0960845947266 48.96568298339844 C 120.1559524536133 49.03359985351562 120.2074890136719 49.10214233398438 120.2573318481445 49.1685791015625 C 120.3053817749023 49.22853088378906 120.3507614135742 49.29167175292969 120.3922271728516 49.3563232421875 C 120.3984603881836 49.36558532714844 120.4073333740234 49.37852478027344 120.4162292480469 49.39151000976562 C 120.4415512084961 49.42849731445312 120.4700469970703 49.47010803222656 120.4962921142578 49.5157470703125 C 120.552848815918 49.60110473632812 120.6064758300781 49.69075012207031 120.65576171875 49.78230285644531 L 127.5549621582031 62.28814697265625 L 128.2314300537109 63.50579833984375 L 133.4059753417969 72.87797546386719 L 133.4081115722656 72.87709045410156 L 133.6034851074219 73.23777770996094 L 136.5569152832031 78.5830078125 L 136.7915649414062 78.99214172363281 L 136.6297607421875 79.12646484375 C 135.7438659667969 79.86178588867188 134.9030303955078 80.66755676269531 134.1306915283203 81.52131652832031 L 134.1167449951172 81.53794860839844 C 133.9497680664062 81.73704528808594 133.760498046875 81.96270751953125 133.6263732910156 82.13835144042969 C 133.5665740966797 82.21664428710938 133.509765625 82.2901611328125 133.4539794921875 82.36238098144531 C 133.3773498535156 82.4615478515625 133.3026123046875 82.55825805664062 133.2244720458984 82.66180419921875 C 133.1375427246094 82.77700805664062 133.0517425537109 82.89596557617188 132.9687805175781 83.01103210449219 C 132.9237365722656 83.073486328125 132.8789978027344 83.13552856445312 132.8342437744141 83.19677734375 C 132.7298583984375 83.34188842773438 132.6258697509766 83.48753356933594 132.5229797363281 83.63162231445312 C 132.3523254394531 83.87059020996094 132.1911163330078 84.09632873535156 132.0276184082031 84.3206787109375 C 131.8731536865234 84.54631042480469 131.7471313476562 84.7152099609375 131.6192932128906 84.86798095703125 C 131.5582885742188 84.94090270996094 131.4979553222656 85.01582336425781 131.4376831054688 85.09066772460938 C 131.3626556396484 85.18378448486328 131.2851257324219 85.28005218505859 131.2066650390625 85.37197113037109 C 130.5206909179688 86.21565246582031 129.6363525390625 86.90220642089844 128.64892578125 87.35767364501953 C 128.0617065429688 87.6177978515625 127.2403030395508 87.93801879882812 126.2891845703125 88.30878448486328 C 123.781005859375 89.28654479980469 120.4156036376953 90.59848785400391 118.6192398071289 91.87776947021484 C 120.5175857543945 91.18576812744141 125.8135833740234 89.29556274414062 127.9958801269531 88.93202209472656 C 128.1730804443359 88.89881134033203 128.3542785644531 88.87938690185547 128.5345458984375 88.87423706054688 C 128.5873413085938 88.87032318115234 128.6405334472656 88.87052154541016 128.6931610107422 88.87480163574219 L 129.3399353027344 88.92758941650391 L 128.723388671875 89.40021514892578 C 128.6551818847656 89.45426177978516 128.5224456787109 89.55940246582031 128.3540649414062 89.70758819580078 C 126.1281585693359 91.71538543701172 124.3420562744141 94.24250030517578 123.1911468505859 97.01371765136719 C 121.4545135498047 101.1198806762695 117.9721298217773 104.0674362182617 116.0954971313477 105.4329223632812 C 117.0091552734375 105.0024566650391 117.8971481323242 104.508674621582 118.7429122924805 103.9604263305664 C 118.9424285888672 103.8278427124023 119.1297836303711 103.6711730957031 119.2974319458008 103.4963302612305 L 119.3113555908203 103.4828872680664 C 119.3230285644531 103.4724578857422 119.3339157104492 103.4609756469727 119.3437194824219 103.4487457275391 L 119.779655456543 103.6720886230469 C 119.7701568603516 103.7062606811523 119.7588653564453 103.7403182983398 119.7461166381836 103.7733688354492 C 119.6513366699219 104.0395202636719 119.531364440918 104.2983627319336 119.389533996582 104.5427551269531 C 118.9084701538086 105.3878021240234 117.9097137451172 106.6970748901367 115.8894271850586 108.1253433227539 C 113.586540222168 109.7534027099609 110.5243072509766 111.1369857788086 106.7799606323242 112.2419281005859 C 109.7963256835938 112.0120086669922 114.5893707275391 111.4357528686523 117.0596160888672 110.027717590332 C 117.3003997802734 109.8939743041992 117.5283126831055 109.739501953125 117.7394409179688 109.5672454833984 L 117.7960586547852 109.5206146240234 L 118.1786270141602 109.8253555297852 L 118.1383438110352 109.9050979614258 C 117.9873428344727 110.1699295043945 117.8172988891602 110.4273300170898 117.6329574584961 110.6701736450195 C 116.769287109375 111.8298034667969 114.7415618896484 113.9539413452148 110.8804016113281 115.1305694580078 C 109.1910705566406 115.6449737548828 107.8142166137695 115.9994888305664 106.5994567871094 116.3122711181641 C 104.3919143676758 116.8806762695312 102.8911666870117 117.2670593261719 101.424430847168 118.1272659301758 C 101.9139022827148 118.0855484008789 102.4081268310547 118.0644454956055 102.8976440429688 118.0644454956055 C 105.6604156494141 118.0644454956055 108.4170761108398 118.7367553710938 110.8696975708008 120.008674621582 C 111.1021728515625 120.1231307983398 111.3142242431641 120.2353515625 111.5177993774414 120.3516082763672 L 111.5588302612305 120.3736877441406 L 111.4403839111328 120.8438415527344 L 111.3558578491211 120.8417739868164 C 111.2399291992188 120.8309173583984 110.9987030029297 120.8083038330078 110.6469268798828 120.7822418212891 C 109.9989471435547 120.7377471923828 109.3174743652344 120.7151412963867 108.6227569580078 120.7151565551758 C 106.7738723754883 120.7151870727539 104.0325012207031 120.8819427490234 101.3022537231445 121.6584243774414 C 102.8141860961914 122.0678482055664 105.8166046142578 123.0012741088867 107.2611312866211 124.2853012084961 L 107.3930130004883 124.4067306518555 C 107.4345855712891 124.4445266723633 107.4743728637695 124.4842987060547 107.5134429931641 124.5272445678711 L 107.802001953125 124.8442840576172 L 107.2388687133789 124.9722747802734 L 107.0733413696289 125.0153121948242 C 105.7049102783203 125.3792724609375 103.1890258789062 126.2258453369141 101.5748596191406 127.8305435180664 C 102.9967651367188 128.3243408203125 107.3197021484375 130.06689453125 109.2358551025391 133.5186767578125 C 109.4064712524414 133.8260498046875 109.5690002441406 134.1206665039062 109.7248611450195 134.4031829833984 C 111.3162841796875 137.2880554199219 112.1929321289062 138.877197265625 113.8848571777344 139.9036712646484 C 114.1755981445312 140.076904296875 114.4823837280273 140.2336120605469 114.7949981689453 140.3684387207031 L 114.7129135131836 140.7660522460938 L 114.7129135131836 140.8479919433594 L 114.6685562133789 140.8479919433594 L 114.6384048461914 140.8420257568359 C 114.5091018676758 140.8133239746094 114.1274566650391 140.7196960449219 113.6084899902344 140.5709533691406 C 111.420783996582 139.9551849365234 107.3968887329102 138.5697021484375 105.0400314331055 136.2128143310547 C 103.5970458984375 134.7808227539062 101.4200286865234 133.9918518066406 98.91069793701172 133.9919128417969 C 96.92375183105469 133.9919738769531 94.90855407714844 134.4882659912109 93.35009002685547 135.3575744628906 C 94.58953094482422 136.3382263183594 99.18727111816406 140.3052825927734 98.93186187744141 144.977294921875 L 98.93186950683594 145.1441345214844 C 98.93379211425781 145.1743011474609 98.93349456787109 145.2047424316406 98.93099975585938 145.2347717285156 L 98.87113189697266 145.9542694091797 L 98.47324371337891 145.351806640625 C 98.4697265625 145.3464965820312 98.46574401855469 145.3414154052734 98.46141815185547 145.3367614746094 L 98.43985748291016 145.3100738525391 C 98.42710113525391 145.2918548583984 98.39854431152344 145.2542877197266 98.33497619628906 145.1788177490234 C 97.69830322265625 144.4134216308594 95.25004577636719 141.9109802246094 90.43528747558594 141.7954711914062 C 90.34791564941406 141.7933044433594 90.26190185546875 141.7922668457031 90.17580413818359 141.7922668457031 C 87.99212646484375 141.7924041748047 85.91375732421875 142.4630279541016 83.99847412109375 143.7855224609375 C 82.56118011474609 144.7779846191406 81.70131683349609 145.8243408203125 81.54319000244141 146.0244140625 L 81.48257446289062 146.3766174316406 L 79.99354553222656 155.0671691894531 L 79.7601318359375 156.4473419189453 L 79.59754180908203 157.3890075683594 L 79.21855926513672 159.5986175537109 L 79.02914428710938 160.7182312011719 L 78.30950164794922 164.9143981933594 L 75.37921905517578 159.6061096191406 L 73.29096984863281 155.8507537841797 L 73.3358154296875 155.7399444580078 C 73.79714202880859 154.5999755859375 74.12326049804688 153.4053192138672 74.30511474609375 152.1891632080078 C 74.31528472900391 152.1223297119141 74.32595825195312 152.0555114746094 74.33674621582031 151.9880828857422 C 74.35122680664062 151.8974761962891 74.36589050292969 151.8057250976562 74.37943267822266 151.712890625 C 74.41432952880859 151.4721069335938 74.44388580322266 151.2433319091797 74.46975708007812 151.0136871337891 C 74.51964569091797 150.6011657714844 74.56023406982422 150.173828125 74.59064483642578 149.7414855957031 C 74.86638641357422 146.1600189208984 74.54843139648438 142.2782897949219 73.76094818115234 139.6094665527344 C 72.83802795410156 136.4884185791016 70.87513732910156 135.1463470458984 68.79698181152344 133.7254638671875 C 68.36531066894531 133.4303131103516 67.9189453125 133.1251220703125 67.48013305664062 132.8024291992188 C 67.13003540039062 132.5452117919922 66.79484558105469 132.2728729248047 66.48153686523438 132.0159912109375 C 66.35498046875 131.9095458984375 66.22378540039062 131.7887878417969 66.09690856933594 131.6719970703125 C 66.00340270996094 131.5859375 65.91508483886719 131.504638671875 65.84420776367188 131.4436645507812 C 65.68356323242188 131.3055114746094 65.54037475585938 131.1486206054688 65.40191650390625 130.9968719482422 L 65.34912109375 130.9390869140625 C 63.24185180664062 128.6678771972656 62.89663696289062 126.5178451538086 62.84103393554688 125.9130172729492 L 62.83998107910156 125.8901290893555 L 62.83998107910156 125.2266616821289 L 63.31735229492188 125.5550842285156 C 63.33119201660156 125.5670013427734 63.34628295898438 125.5774459838867 63.36219787597656 125.5861587524414 L 63.38760375976562 125.6020889282227 C 63.47927856445312 125.6675567626953 63.57527160644531 125.7266159057617 63.66535949707031 125.7806854248047 C 63.92103576660156 125.9321594238281 64.19129943847656 126.0667419433594 64.46746826171875 126.1799850463867 C 64.71659851074219 126.286018371582 64.97113037109375 126.3785705566406 65.22708129882812 126.4563751220703 C 66.32696533203125 126.76904296875 67.46891784667969 126.9282302856445 68.61689758300781 126.9282302856445 C 68.72686767578125 126.9282302856445 68.83760070800781 126.9267425537109 68.9482421875 126.9237899780273 C 68.59007263183594 125.7342147827148 66.43258666992188 123.0187454223633 64.48001098632812 120.8172302246094 L 64.29473876953125 120.6086883544922 L 63.90235900878906 120.1881256103516 L 64.5777587890625 120.1902542114258 L 64.78121948242188 120.2169570922852 C 66.46043395996094 120.3974761962891 68.07847595214844 120.870231628418 69.59071350097656 121.6221160888672 C 69.84751892089844 121.752082824707 70.10877990722656 121.8990325927734 70.36886596679688 122.059700012207 C 70.64839172363281 122.2292709350586 70.92411804199219 122.4161987304688 71.18670654296875 122.6142730712891 C 71.48512268066406 122.8344879150391 71.77030944824219 123.077278137207 72.03738403320312 123.3383712768555 C 71.80398559570312 122.0209197998047 71.23016357421875 121.0080871582031 69.7462158203125 119.1954116821289 C 69.64752197265625 119.0776901245117 69.5450439453125 118.9542617797852 69.43948364257812 118.8271179199219 C 69.23031616210938 118.5751419067383 69.01402282714844 118.3145980834961 68.77508544921875 118.0354690551758 L 67.80928039550781 116.9069747924805 C 65.96427917480469 114.6875305175781 64.88429260253906 111.981559753418 64.30300903320312 110.1021423339844 C 64.19607543945312 109.7665557861328 64.09579467773438 109.4207611083984 64.00555419921875 109.0763702392578 L 64.47697448730469 108.9140472412109 C 64.60700988769531 109.2156829833984 64.76797485351562 109.50537109375 64.95542907714844 109.7751235961914 C 65.51020812988281 110.5326843261719 66.14189147949219 111.2390899658203 66.83299255371094 111.8748016357422 L 66.83827209472656 111.8797988891602 C 67.10794067382812 112.1427459716797 67.43165588378906 112.4463882446289 67.7042236328125 112.6920700073242 C 67.97077941894531 112.9322891235352 68.25070190429688 113.1791610717773 68.56002807617188 113.4467849731445 C 69.25042724609375 114.0366134643555 70.01776123046875 114.6665878295898 70.83952331542969 115.3181991577148 C 73.74636840820312 117.6121368408203 75.69107055664062 121.3895645141602 76.61310577392578 123.4994430541992 C 76.25111389160156 121.8429870605469 74.98953247070312 119.6351699829102 73.76352691650391 117.489631652832 C 72.53425598144531 115.3383560180664 71.26313781738281 113.1138610839844 70.75111389160156 111.2519760131836 C 70.20681762695312 109.2655258178711 70.32583618164062 107.0932006835938 71.10481262207031 104.7951278686523 C 71.67510223388672 103.1127014160156 72.60456085205078 101.3499145507812 73.86735534667969 99.55575561523438 C 75.47479248046875 97.27580261230469 75.06045532226562 93.44778442382812 74.88741302490234 92.28830718994141 C 74.86671447753906 92.22463989257812 74.86209106445312 92.16798400878906 74.86105346679688 92.12520599365234 C 74.81900787353516 91.95905303955078 74.81675720214844 91.85768890380859 74.81675720214844 91.83810424804688 L 74.81675720214844 91.54902648925781 L 75.10279846191406 91.59071350097656 C 75.20264434814453 91.60526275634766 75.29930114746094 91.63465881347656 75.39022064208984 91.67813110351562 C 75.45874786376953 91.70773315429688 75.52523803710938 91.74320220947266 75.58794403076172 91.78358459472656 C 76.9146728515625 92.66934204101562 77.76564788818359 96.32404327392578 77.84798431396484 98.51251220703125 C 77.89085388183594 99.83189392089844 78.49876403808594 101.5859603881836 79.05149841308594 102.9254302978516 C 78.90240478515625 100.7158584594727 79.18038940429688 97.56537628173828 79.79374694824219 94.58684539794922 C 80.55500030517578 90.89007568359375 81.73143005371094 87.91937255859375 83.10630035400391 86.22198486328125 C 84.55252838134766 84.4268798828125 86.285888671875 82.03395080566406 88.11854553222656 79.30239868164062 C 88.21651458740234 79.15711975097656 88.31163024902344 79.01316833496094 88.40674591064453 78.86923217773438 C 88.50284576416016 78.72381591796875 88.59893035888672 78.57839965820312 88.69757080078125 78.43214416503906 C 88.86612701416016 78.18222045898438 89.03143310546875 77.92959594726562 89.19127655029297 77.685302734375 L 89.26764678955078 77.56863403320312 C 90.77763366699219 75.26615905761719 92.02883148193359 73.23490905761719 92.70102691650391 72.14366149902344 L 92.8580322265625 71.88885498046875 C 92.91974639892578 71.78596496582031 92.97892761230469 71.68574523925781 93.02932739257812 71.60040283203125 C 93.11314392089844 71.45851135253906 93.15810394287109 71.38262939453125 93.18428802490234 71.34332275390625 C 93.19229888916016 71.33132934570312 93.20054626464844 71.31361389160156 93.20716094970703 71.29939270019531 C 93.27233123779297 71.15937805175781 93.37398529052734 71.12998962402344 93.44779968261719 71.12998962402344 C 93.57170104980469 71.12998962402344 93.69985961914062 71.22749328613281 93.69985961914062 71.390625 L 93.69977569580078 72.11799621582031 C 93.66188812255859 73.56101989746094 93.51255798339844 75.01296997070312 93.25591278076172 76.43356323242188 C 93.23036193847656 76.58055114746094 93.20146942138672 76.73098754882812 93.17353057861328 76.87646484375 C 93.15679931640625 76.96351623535156 93.1400146484375 77.05087280273438 93.12371826171875 77.13868713378906 C 93.08026123046875 77.37260437011719 93.03328704833984 77.60528564453125 92.98008728027344 77.85003662109375 C 92.31723785400391 80.84498596191406 91.42620849609375 83.81181335449219 90.32913208007812 86.67839813232422 C 90.44841766357422 86.51485443115234 90.57200622558594 86.34650421142578 90.69915771484375 86.17331695556641 C 92.39163208007812 83.86788940429688 94.70954132080078 80.71049499511719 96.04358673095703 76.39314270019531 C 96.1207275390625 76.14419555664062 96.193603515625 75.89437866210938 96.25437164306641 75.67047119140625 C 96.30328369140625 75.49026489257812 96.35469818115234 75.28622436523438 96.40006256103516 75.10623168945312 L 96.43947601318359 74.95018005371094 C 96.49254608154297 74.74124145507812 96.54019927978516 74.51992797851562 96.5863037109375 74.305908203125 C 97.02677154541016 72.06404113769531 97.66611480712891 69.84126281738281 98.48565673828125 67.70368957519531 L 98.48773193359375 67.69847106933594 C 98.62642669677734 67.35968017578125 98.76150512695312 67.05146789550781 98.88919067382812 66.78239440917969 C 99.0675048828125 66.40219116210938 99.23517608642578 66.08169555664062 99.40129089355469 65.80364990234375 C 99.53099822998047 65.57843017578125 99.67754364013672 65.35508728027344 99.83483123779297 65.14321899414062 C 99.97244262695312 64.95025634765625 100.1357269287109 64.76966857910156 100.3173599243164 64.61026000976562 L 100.3344192504883 64.59657287597656 L 100.3851699829102 64.55934143066406 L 100.7539596557617 64.8779296875 L 100.7256469726562 64.931396484375 C 100.632453918457 65.12367248535156 100.5520935058594 65.32427978515625 100.4867858886719 65.52769470214844 L 100.4720458984375 65.57554626464844 C 100.4599838256836 65.61488342285156 100.4474105834961 65.65582275390625 100.4333114624023 65.69831848144531 C 100.3546371459961 65.9688720703125 100.2778778076172 66.30183410644531 100.2389907836914 66.476806640625 C 100.1828308105469 66.72952270507812 100.1336822509766 67.00086975097656 100.0929489135742 67.23348999023438 C 99.80917358398438 69.19027709960938 99.62743377685547 71.17982482910156 99.55119323730469 73.16020202636719 C 100.2402801513672 70.3609619140625 101.390998840332 67.72276306152344 102.9772872924805 65.30729675292969 C 103.2077560424805 64.94801330566406 103.4444122314453 64.59956359863281 103.720573425293 64.21290588378906 C 103.9900588989258 63.83561706542969 104.2816314697266 63.44761657714844 104.5872039794922 63.05964660644531 C 106.4472732543945 60.7393798828125 108.6061477661133 58.67457580566406 111.0051879882812 56.9208984375 C 114.8022766113281 54.10272216796875 117.6812286376953 51.37419128417969 119.5605850219727 48.81211853027344 L 119.736213684082 48.57269287109375 Z" stroke="none" fill="#fff"/>
        </g>
        <path id="Path_601" data-name="Path 601" d="M73.174,142.9a14.735,14.735,0,0,0,1.195-4.149,28.715,28.715,0,0,0,.315-4.311,31.681,31.681,0,0,0-.288-4.315,19.93,19.93,0,0,0-.988-4.2,8.7,8.7,0,0,0-2.474-3.452c-1.083-.944-2.328-1.692-3.506-2.531a16.433,16.433,0,0,1-1.692-1.377,13.09,13.09,0,0,1-1.448-1.638,8.122,8.122,0,0,1-1.608-4.061.146.146,0,0,1,.135-.152.122.122,0,0,1,.091.027h0a7.584,7.584,0,0,0,2.927,1.188,12.8,12.8,0,0,0,3.157.23l-.156.173a2.558,2.558,0,0,0-.338-.9,9.654,9.654,0,0,0-.528-.873c-.379-.572-.792-1.124-1.215-1.668-.849-1.086-1.746-2.142-2.663-3.171h0a.186.186,0,0,1,.162-.3c.372.054.745.1,1.117.159a10.313,10.313,0,0,1,1.1.234,14.214,14.214,0,0,1,2.142.714,12.144,12.144,0,0,1,1.956,1.09,7.847,7.847,0,0,1,1.692,1.54l-.338.118a6.43,6.43,0,0,0-.518-2.142,9.733,9.733,0,0,0-1.174-1.885c-.457-.6-.944-1.181-1.435-1.763s-1-1.137-1.482-1.75a18.45,18.45,0,0,1-2.345-3.966,23.605,23.605,0,0,1-1.432-4.4l.474-.051a2.707,2.707,0,0,0,.376,1.161,7.523,7.523,0,0,0,.738,1.069,19.63,19.63,0,0,0,1.834,1.922q.975.909,2.031,1.76l1.039.849c.338.278.707.552,1.052.856a18.776,18.776,0,0,1,3.435,4.22,28.983,28.983,0,0,1,2.4,4.877l-.545.03a4.061,4.061,0,0,0-.234-2.031,15.384,15.384,0,0,0-.849-2c-.653-1.31-1.4-2.582-2.135-3.868a43.947,43.947,0,0,1-2.078-3.96,11.935,11.935,0,0,1-.741-2.149,9.74,9.74,0,0,1-.24-2.278,12.789,12.789,0,0,1,.914-4.437A21,21,0,0,1,73.1,87.348c.2-.308.437-.629.613-.91a5.6,5.6,0,0,0,.447-.944,8.722,8.722,0,0,0,.474-2.075,15.906,15.906,0,0,0-.169-4.315v-.017a.338.338,0,0,1,.4-.4,1.635,1.635,0,0,1,.964.609,4.6,4.6,0,0,1,.538.826,10.383,10.383,0,0,1,.677,1.753,16.475,16.475,0,0,1,.633,3.645,11.506,11.506,0,0,0,.792,3.418A30.327,30.327,0,0,0,79.9,92.218h0a.377.377,0,0,1-.653.376,3.33,3.33,0,0,1-.447-1.256,10.047,10.047,0,0,1-.146-1.218,22.718,22.718,0,0,1-.017-2.4,38.2,38.2,0,0,1,.525-4.738,35.454,35.454,0,0,1,1.113-4.64,17.791,17.791,0,0,1,1.987-4.383c.223-.338.491-.677.728-.968s.487-.613.724-.924c.474-.623.944-1.252,1.4-1.888q1.374-1.909,2.687-3.865,2.619-3.916,5.059-7.95h0a.372.372,0,0,1,.694.19,26.6,26.6,0,0,1-.409,4.789,45.351,45.351,0,0,1-1.056,4.663c-.426,1.536-.914,3.046-1.452,4.545s-1.12,2.975-1.77,4.437h0a.342.342,0,0,1-.643-.227A5.682,5.682,0,0,1,89.05,75.1c.338-.491.677-.961,1.015-1.428.677-.931,1.381-1.858,2.031-2.812a28.546,28.546,0,0,0,3.191-6.092,24.174,24.174,0,0,0,.971-3.293c.257-1.134.521-2.271.846-3.384a29.336,29.336,0,0,1,1.13-3.323A15.336,15.336,0,0,1,99,53.2c.071-.132.146-.261.227-.386s.162-.254.25-.376.186-.244.284-.362c.054-.058.1-.118.162-.173a1.353,1.353,0,0,1,.21-.179.261.261,0,0,1,.359.068.264.264,0,0,1,.017.264h0a6.3,6.3,0,0,0-.494,1.469c-.122.518-.213,1.046-.291,1.577-.152,1.063-.254,2.139-.338,3.215-.152,2.152-.223,4.318-.23,6.477h0a.21.21,0,0,1-.416,0,15.844,15.844,0,0,1,.223-2.755,22.471,22.471,0,0,1,.606-2.674,25.429,25.429,0,0,1,2.1-5.056,30.587,30.587,0,0,1,6.917-8.389c1.374-1.2,2.89-2.22,4.288-3.361a46.05,46.05,0,0,0,4.031-3.628,24.522,24.522,0,0,0,3.384-4.217,12.275,12.275,0,0,0,1.178-2.416,7.519,7.519,0,0,0,.338-1.3,3.928,3.928,0,0,0,.02-1.3h0a.115.115,0,1,1,.227-.044,3.973,3.973,0,0,1,0,1.4,8.267,8.267,0,0,1-.338,1.354,12.783,12.783,0,0,1-1.191,2.47,24.983,24.983,0,0,1-3.384,4.274,45.566,45.566,0,0,1-4.041,3.668c-1.408,1.157-2.914,2.176-4.264,3.384a30.17,30.17,0,0,0-6.8,8.349,25.108,25.108,0,0,0-2.031,4.988,21.839,21.839,0,0,0-.585,2.63,15.472,15.472,0,0,0-.206,2.667H98.8c0-2.173.041-4.342.179-6.511.068-1.083.162-2.169.308-3.252.078-.541.166-1.08.284-1.621a6.768,6.768,0,0,1,.531-1.6l.365.338-.118.108c-.044.044-.088.1-.132.146a3.906,3.906,0,0,0-.247.338c-.081.112-.159.23-.23.338s-.146.24-.213.365a15.347,15.347,0,0,0-.724,1.547,29.33,29.33,0,0,0-1.08,3.269c-.311,1.11-.562,2.237-.809,3.384a24.122,24.122,0,0,1-.971,3.384A29.341,29.341,0,0,1,92.7,71.3c-.65.971-1.354,1.912-2.031,2.843-.338.467-.677.934-1,1.4a5.222,5.222,0,0,0-.728,1.435l-.646-.217c.633-1.432,1.2-2.907,1.729-4.4s1.015-2.985,1.421-4.5a34.535,34.535,0,0,0,1.411-9.252l.7.19q-2.45,4.061-5.076,7.983-1.316,1.966-2.707,3.888c-.46.64-.934,1.272-1.411,1.9s-1.015,1.245-1.425,1.855a17.155,17.155,0,0,0-1.9,4.193,35.006,35.006,0,0,0-1.086,4.538,36.982,36.982,0,0,0-.511,4.64,20.354,20.354,0,0,0,0,2.318,10.056,10.056,0,0,0,.132,1.127,2.812,2.812,0,0,0,.338.961l-.646.393a30.744,30.744,0,0,1-1.465-3.384,18.217,18.217,0,0,1-.541-1.773c-.068-.3-.139-.609-.183-.924a3.625,3.625,0,0,1-.054-.474c0-.159-.027-.338-.034-.464a15.717,15.717,0,0,0-.609-3.486,9.6,9.6,0,0,0-.629-1.628,3.888,3.888,0,0,0-.443-.7.968.968,0,0,0-.521-.365l.4-.423a16.407,16.407,0,0,1,.159,4.531,9.374,9.374,0,0,1-.518,2.237,6.2,6.2,0,0,1-.511,1.056c-.217.338-.423.619-.626.931a20.5,20.5,0,0,0-2.031,3.851,12.082,12.082,0,0,0-.887,4.21,9.2,9.2,0,0,0,.213,2.129,11.35,11.35,0,0,0,.7,2.031,43.732,43.732,0,0,0,2.031,3.909c.728,1.286,1.479,2.569,2.139,3.909a16.207,16.207,0,0,1,.873,2.085,4.572,4.572,0,0,1,.237,2.335.281.281,0,0,1-.538.041h0A28.472,28.472,0,0,0,74.1,107.46a18.255,18.255,0,0,0-3.317-4.115c-.338-.291-.677-.562-1.015-.846l-1.046-.856c-.677-.579-1.354-1.171-2.031-1.79a19.9,19.9,0,0,1-1.868-1.98,7.844,7.844,0,0,1-.863-1.154,3.2,3.2,0,0,1-.433-1.381.24.24,0,0,1,.234-.247.237.237,0,0,1,.24.186h0a23.6,23.6,0,0,0,1.381,4.295,17.987,17.987,0,0,0,2.257,3.9c.941,1.171,1.987,2.3,2.907,3.533a10.189,10.189,0,0,1,1.218,1.983,6.958,6.958,0,0,1,.541,2.278.2.2,0,0,1-.359.146h0a7.6,7.6,0,0,0-1.594-1.448A11.547,11.547,0,0,0,68.45,108.9a13.567,13.567,0,0,0-2.081-.7c-.338-.1-.717-.152-1.073-.234s-.728-.1-1.093-.156l.159-.308c.924,1.042,1.814,2.1,2.667,3.2.426.552.839,1.113,1.225,1.692.19.294.376.592.541.907a2.8,2.8,0,0,1,.359,1.022.162.162,0,0,1-.142.173h0a13.091,13.091,0,0,1-1.631-.024,12.955,12.955,0,0,1-1.614-.227,7.784,7.784,0,0,1-3.012-1.256l.237-.122a6.633,6.633,0,0,0,.491,2.031,9.477,9.477,0,0,0,1.015,1.865,12.252,12.252,0,0,0,1.408,1.621,15.667,15.667,0,0,0,1.655,1.354c1.157.853,2.4,1.6,3.5,2.572a8.843,8.843,0,0,1,2.491,3.54,20.079,20.079,0,0,1,.961,4.234,32.526,32.526,0,0,1,.25,4.332,28.845,28.845,0,0,1-.338,4.318,14.728,14.728,0,0,1-1.245,4.173Z" transform="translate(-41.486 -19.559)" fill="#1b2d59"/>
        <path id="Path_602" data-name="Path 602" d="M189.627,60.508a22.433,22.433,0,0,0-4.477,1.13,6.667,6.667,0,0,0-1.987,1.107,11.552,11.552,0,0,0-1.4,1.824c-1.709,2.589-3.242,5.31-5.171,7.784a9.1,9.1,0,0,1-3.621,2.968c-1.391.717-2.819,1.354-4.244,1.963s-2.853,1.239-4.254,1.9c-.7.338-1.394.677-2.071,1.053a13.478,13.478,0,0,0-1.959,1.252l-.176-.291q1.763-.772,3.564-1.442a24.194,24.194,0,0,1,3.719-1.113c.315-.061.677-.078.968-.1a7.8,7.8,0,0,0,.921-.156,13.484,13.484,0,0,0,1.8-.565,16.427,16.427,0,0,0,1.723-.778c.281-.146.552-.3.816-.47a3.958,3.958,0,0,0,.707-.548h0a.227.227,0,0,1,.338,0,.23.23,0,0,1,.058.254,14.137,14.137,0,0,1-.992,1.956,21.668,21.668,0,0,1-1.218,1.807,21.21,21.21,0,0,1-1.4,1.668c-.487.538-1.015,1.039-1.547,1.533h-.017c-.985.717-1.959,1.459-2.91,2.223s-1.888,1.553-2.765,2.389a16.25,16.25,0,0,0-1.249,1.31c-.389.457-.751.944-1.11,1.438a22.96,22.96,0,0,1-2.3,2.934,6.836,6.836,0,0,1-1.533,1.151c-.582.308-1.147.514-1.723.751-1.144.453-2.284.89-3.418,1.354s-2.251.948-3.333,1.492c-.541.271-1.073.562-1.577.88a5.673,5.673,0,0,0-1.323,1.1l-.379-.518c1.838-.677,3.679-1.354,5.537-1.963.931-.308,1.865-.609,2.809-.887.47-.139.948-.271,1.432-.389.24-.061.484-.112.734-.159a3.951,3.951,0,0,1,.812-.081.338.338,0,0,1,.206.633h0a15.42,15.42,0,0,0-2.179,2.132,21.041,21.041,0,0,0-1.817,2.484,20.347,20.347,0,0,0-1.442,2.724l-.338.721q-.166.365-.338.721c-.244.474-.525.931-.812,1.381a22.538,22.538,0,0,1-4.24,4.738A24.152,24.152,0,0,1,143.9,113.7a15.987,15.987,0,0,1-2.839,1.5.372.372,0,0,1-.267-.694h0c1.279-.5,2.552-1.036,3.794-1.618.619-.291,1.232-.6,1.824-.927.294-.166.585-.338.86-.521a3.791,3.791,0,0,0,.717-.6h0a.369.369,0,0,1,.629.338,3.556,3.556,0,0,1-.24.6c-.095.183-.19.359-.3.528a9.45,9.45,0,0,1-.7.965,13.23,13.23,0,0,1-1.672,1.645,20.593,20.593,0,0,1-3.9,2.5,41.255,41.255,0,0,1-8.653,3.076l-.1-.745c1.157-.037,2.328-.122,3.489-.227s2.318-.25,3.465-.44a28.368,28.368,0,0,0,3.384-.738,9.154,9.154,0,0,0,3.046-1.415h.017a.362.362,0,0,1,.511.051.338.338,0,0,1,.037.4,9.117,9.117,0,0,1-1.621,2.071,12.471,12.471,0,0,1-2.031,1.6,14.5,14.5,0,0,1-2.291,1.178,23.9,23.9,0,0,1-2.426.8c-1.618.47-3.259.863-4.87,1.293a19.224,19.224,0,0,0-2.345.775,10.359,10.359,0,0,0-2.119,1.195l-.271-.589a13.711,13.711,0,0,1,2.938-.22,17.411,17.411,0,0,1,2.9.338,18.243,18.243,0,0,1,5.455,2.031.311.311,0,0,1,.118.423.3.3,0,0,1-.3.156h0a26.6,26.6,0,0,0-2.758-.139q-1.384,0-2.768.118a25.676,25.676,0,0,0-2.741.382,22.777,22.777,0,0,0-2.674.677l-.027-.555c.633.149,1.249.322,1.865.508s1.225.4,1.827.629a16.674,16.674,0,0,1,1.773.805,6.6,6.6,0,0,1,1.621,1.161.278.278,0,0,1,0,.389.3.3,0,0,1-.132.071h0a15.074,15.074,0,0,0-1.668.487,14.837,14.837,0,0,0-1.611.677,9.029,9.029,0,0,0-2.785,2l-.122-.43a18.651,18.651,0,0,1,4.369,2.105,11.411,11.411,0,0,1,3.469,3.384c.816,1.4,1.53,2.812,2.369,4.146a9.767,9.767,0,0,0,1.459,1.814,6.9,6.9,0,0,0,1.939,1.242h0a.223.223,0,0,1,.118.3.227.227,0,0,1-.264.132,29.2,29.2,0,0,1-5.648-2,17.832,17.832,0,0,1-2.6-1.516,11.813,11.813,0,0,1-1.171-.965,8.267,8.267,0,0,0-1.11-.937,9.4,9.4,0,0,0-5.54-1.459,12.269,12.269,0,0,0-2.893.42,10.2,10.2,0,0,0-2.687,1.124v-.308a19.084,19.084,0,0,1,2.237,2.007,16.94,16.94,0,0,1,1.882,2.338,11.169,11.169,0,0,1,1.333,2.707,8.753,8.753,0,0,1,.338,1.479,7.9,7.9,0,0,1,.027,1.523.169.169,0,0,1-.179.149.166.166,0,0,1-.115-.064h0a8.146,8.146,0,0,0-1.76-1.645,10.372,10.372,0,0,0-2.142-1.154,12.42,12.42,0,0,0-4.816-.849,10.691,10.691,0,0,0-4.691,1.239,12.322,12.322,0,0,0-3.794,3.063v-.037l-3.624,20.678,3.459-20.708h0a.051.051,0,0,1,0-.034,12.556,12.556,0,0,1,3.831-3.147,10.982,10.982,0,0,1,4.782-1.3,12.7,12.7,0,0,1,4.9.819,10.711,10.711,0,0,1,2.21,1.171,8.461,8.461,0,0,1,1.855,1.709l-.3.081a7.964,7.964,0,0,0-.03-1.448,8.527,8.527,0,0,0-.338-1.418,10.887,10.887,0,0,0-1.3-2.613,16.681,16.681,0,0,0-1.855-2.284,18.452,18.452,0,0,0-2.193-1.956h0a.186.186,0,0,1-.037-.261.337.337,0,0,1,.051-.047,10.765,10.765,0,0,1,2.782-1.178,12.88,12.88,0,0,1,3.009-.447,9.826,9.826,0,0,1,5.79,1.509,8.8,8.8,0,0,1,1.164.978,10.95,10.95,0,0,0,1.127.921,17.548,17.548,0,0,0,2.542,1.472,28.96,28.96,0,0,0,5.557,1.949l-.139.433a7.3,7.3,0,0,1-2.075-1.32,9.953,9.953,0,0,1-1.543-1.9c-.873-1.354-1.6-2.789-2.4-4.146a10.972,10.972,0,0,0-3.333-3.232,18.389,18.389,0,0,0-4.237-2.031h0a.264.264,0,0,1-.169-.338.241.241,0,0,1,.054-.095,9.662,9.662,0,0,1,2.941-2.132,16.611,16.611,0,0,1,3.408-1.208l-.146.46a5.97,5.97,0,0,0-1.482-1.049,15.912,15.912,0,0,0-1.712-.765,28.77,28.77,0,0,0-3.618-1.1h0a.288.288,0,0,1-.02-.555,23.5,23.5,0,0,1,2.741-.717,26.215,26.215,0,0,1,2.8-.4c.941-.085,1.882-.132,2.822-.132a27.514,27.514,0,0,1,2.836.132l-.193.579a17.6,17.6,0,0,0-5.273-1.943,16.853,16.853,0,0,0-2.8-.3,12.99,12.99,0,0,0-2.775.213h0a.338.338,0,0,1-.264-.589,10.877,10.877,0,0,1,2.251-1.279,20.216,20.216,0,0,1,2.426-.812c1.631-.443,3.252-.836,4.856-1.306a23.947,23.947,0,0,0,2.369-.785,13.766,13.766,0,0,0,2.173-1.127,11.823,11.823,0,0,0,1.912-1.513,9.7,9.7,0,0,0,.812-.9,6.767,6.767,0,0,0,.66-.975l.569.44a9.379,9.379,0,0,1-3.3,1.57,29.647,29.647,0,0,1-3.482.772c-1.168.19-2.342.338-3.516.443s-2.349.19-3.54.23a.376.376,0,0,1-.1-.741h0a40.763,40.763,0,0,0,8.494-3.012,20.381,20.381,0,0,0,3.74-2.4,12.588,12.588,0,0,0,1.574-1.547,8.44,8.44,0,0,0,.64-.88,5.278,5.278,0,0,0,.261-.467,3.362,3.362,0,0,0,.19-.453l.646.338a4.614,4.614,0,0,1-.873.728c-.3.2-.6.382-.91.555q-.924.508-1.875.951c-1.266.592-2.542,1.13-3.841,1.638l-.264-.694a15.162,15.162,0,0,0,2.707-1.428,23.472,23.472,0,0,0,2.474-1.844,21.727,21.727,0,0,0,4.105-4.579,17.323,17.323,0,0,0,1.435-2.707,21.746,21.746,0,0,1,1.492-2.816,21.228,21.228,0,0,1,1.892-2.565,16.085,16.085,0,0,1,2.308-2.24l.189.646a3.334,3.334,0,0,0-.646.068c-.23.041-.464.091-.7.146-.464.112-.931.24-1.4.376-.934.271-1.861.565-2.785.87-1.851.613-3.7,1.262-5.523,1.932h0a.338.338,0,0,1-.372-.535,6.21,6.21,0,0,1,1.5-1.245,18.516,18.516,0,0,1,1.638-.907c1.11-.555,2.247-1.036,3.384-1.5s2.291-.9,3.428-1.354a17.577,17.577,0,0,0,1.658-.711,6.252,6.252,0,0,0,1.4-1.046,22.454,22.454,0,0,0,2.24-2.846c.365-.5.738-.995,1.144-1.469a15.787,15.787,0,0,1,1.3-1.354c.9-.849,1.855-1.635,2.822-2.4s1.946-1.5,2.951-2.22h-.02c.525-.474,1.042-.961,1.523-1.482s.941-1.063,1.377-1.621a20.646,20.646,0,0,0,1.2-1.756,14.041,14.041,0,0,0,.971-1.871l.386.234a4.245,4.245,0,0,1-.809.623,9.22,9.22,0,0,1-.849.481,16.248,16.248,0,0,1-1.773.789,13.589,13.589,0,0,1-1.861.569,8.537,8.537,0,0,1-.971.156,8.941,8.941,0,0,0-.941.095A23.994,23.994,0,0,0,164,80.072c-1.2.433-2.386.907-3.553,1.408h0a.173.173,0,0,1-.176-.291,13.6,13.6,0,0,1,1.983-1.286c.677-.376,1.388-.721,2.091-1.056,1.411-.677,2.843-1.276,4.267-1.9s2.856-1.239,4.234-1.946a11.506,11.506,0,0,0,1.956-1.2,11.717,11.717,0,0,0,1.553-1.638c1.915-2.437,3.459-5.151,5.178-7.746.217-.338.44-.646.677-.961a6.092,6.092,0,0,1,.768-.917,6.819,6.819,0,0,1,2.071-1.151,22.931,22.931,0,0,1,4.548-1.13.123.123,0,1,1,.037.244Z" transform="translate(-70.443 -39.864)" fill="#1b2d59"/>
        <path id="Path_603" data-name="Path 603" d="M173.708,35.994A100.137,100.137,0,0,0,165.17,41.5q-4.152,2.951-8.082,6.186-3.557,2.914-6.938,6.037c-.156.139-.311.284-.464.43s-.311.284-.464.43q-1.726,1.618-3.408,3.289l-.893.893c-.376.376-.748.758-1.117,1.14-.146.146-.284.291-.426.437l-.43.443-.731.768a163.038,163.038,0,0,0-13.006,15.6q-3,4.095-5.726,8.379t-5.168,8.725a154.066,154.066,0,0,0-14.633,37.646q-.586,2.393-1.093,4.8a.787.787,0,0,1-.037.173l-.091.44q-.291,1.4-.552,2.8-.413,2.152-.755,4.322-.115.717-.223,1.432c-.047.308-.095.619-.139.931a.031.031,0,0,0,0,.017c-.024.169-.051.338-.071.511q-.078.5-.142,1.015c-.041.288-.078.579-.115.87q-.1.758-.193,1.513c-.051.409-.1.822-.142,1.232s-.095.836-.139,1.252q-.135,1.272-.25,2.545c-.037.365-.068.731-.1,1.1l-.091,1.1q-.393,4.775-.491,9.571l-3.912,3.922a179.176,179.176,0,0,1,1.394-18.952l.132-1.015q.066-.508.142-1.015.244-1.773.531-3.537c.061-.379.122-.758.186-1.137s.125-.745.193-1.117q.4-2.315.877-4.619c.085-.426.176-.853.264-1.276l.274-1.259q.711-3.195,1.547-6.359A156.842,156.842,0,0,1,116.3,93.133q2.548-4.474,5.415-8.748t5.956-8.376a164.291,164.291,0,0,1,13.456-15.523l.535-.538c.152-.156.3-.311.46-.464l.453-.453c.528-.525,1.063-1.049,1.6-1.567l.453-.437q.227-.223.457-.437,1.719-1.641,3.486-3.225c.156-.139.311-.281.47-.416s.311-.281.467-.42q3.35-2.965,6.873-5.753,4.02-3.178,8.254-6.092a101,101,0,0,1,8.731-5.394Z" transform="translate(-62.967 -23.348)" fill="#1b2d59"/>
        <path id="Path_604" data-name="Path 604" d="M325.261,45.393a2.825,2.825,0,0,0-.636-.785,4.467,4.467,0,0,0-.8-.606,6.961,6.961,0,0,0-1.851-.745A13.568,13.568,0,0,0,318,42.919a11.869,11.869,0,0,0-3.824,1.015,24.411,24.411,0,0,0-3.537,1.905,54.734,54.734,0,0,0-6.43,4.9l-.765.677c-.129.112-.25.227-.382.338s-.274.223-.416.338a8.011,8.011,0,0,1-1.844.951,15.608,15.608,0,0,1-3.993.846,16.881,16.881,0,0,0,3.882-1.124,7.892,7.892,0,0,0,1.726-.985c.129-.1.247-.21.372-.318s.244-.234.366-.338l.741-.7a44.7,44.7,0,0,1,6.413-5.076,24.217,24.217,0,0,1,3.638-1.919,11.655,11.655,0,0,1,4.027-.958,13.821,13.821,0,0,1,4.085.514,7.248,7.248,0,0,1,1.858.9,3.631,3.631,0,0,1,1.344,1.509Z" transform="translate(-196.381 -28.096)" fill="#1b2d59"/>
        <path id="Path_605" data-name="Path 605" d="M273.38,21.41a6.636,6.636,0,0,0,2.457-5.12,9.033,9.033,0,0,0-.45-2.877,9.72,9.72,0,0,0-.538-1.354,9.928,9.928,0,0,0-.751-1.249,12.813,12.813,0,0,0-4.4-3.75,20.238,20.238,0,0,0-5.489-1.953,22.174,22.174,0,0,0-5.807-.42A27.944,27.944,0,0,0,252.648,5.7a32.368,32.368,0,0,0-5.455,2.1,23.352,23.352,0,0,0-2.538,1.455,12.772,12.772,0,0,0-2.237,1.811h0a.291.291,0,0,1-.413,0,.3.3,0,0,1-.027-.4q2.183-2.68,4.4-5.32L250.868.1l.4.42A57.129,57.129,0,0,1,246.5,3.849c-.413.257-.843.494-1.283.717s-.873.423-1.313.626l-2.633,1.2c-1.753.8-3.492,1.628-5.2,2.5a33.338,33.338,0,0,0-4.9,2.985,9.93,9.93,0,0,0-1.959,2.031,27.147,27.147,0,0,0-1.584,2.4c-.985,1.652-1.875,3.361-2.8,5.053S223,24.76,221.947,26.4a24.42,24.42,0,0,1-3.557,4.552,25.265,25.265,0,0,0,3.435-4.63c.995-1.648,1.888-3.357,2.772-5.076s1.76-3.435,2.728-5.11a27.861,27.861,0,0,1,1.577-2.447,10.309,10.309,0,0,1,2.007-2.146,33.789,33.789,0,0,1,4.948-3.08c1.692-.914,3.455-1.739,5.208-2.548L243.69,4.7c.437-.2.87-.409,1.3-.623s.836-.447,1.239-.7A57.108,57.108,0,0,0,250.912.062a.288.288,0,0,1,.406.054.294.294,0,0,1,0,.365l-4.457,5.273c-1.479,1.756-2.958,3.52-4.4,5.3l-.437-.386a13.439,13.439,0,0,1,2.349-1.885,25.172,25.172,0,0,1,2.6-1.465,33.4,33.4,0,0,1,5.557-2.108,27.511,27.511,0,0,1,5.861-1.015,22.613,22.613,0,0,1,5.926.5,20.373,20.373,0,0,1,5.554,2.075,12.79,12.79,0,0,1,4.443,3.892,9.663,9.663,0,0,1,.745,1.3,9.379,9.379,0,0,1,.521,1.4,9.09,9.09,0,0,1,.4,2.938,6.934,6.934,0,0,1-.717,2.863A6.325,6.325,0,0,1,273.38,21.41Z" transform="translate(-144.5 -0.001)" fill="#1b2d59"/>
        <path id="Path_606" data-name="Path 606" d="M166.09,307s8.44,0,9.814,8.237C175.918,315.227,167.779,313.674,166.09,307Z" transform="translate(-109.9 -203.105)" fill="#f8f8f8"/>
      </g>
    </g>
    <text id="" transform="translate(187 246)" fill="#1a2d59" font-size="36" font-family="DINNextLTW23-Heavy, DIN Next LT W23" font-weight="800" letter-spacing="0em"><tspan x="-33" y="0"></tspan></text>
  </g>
</svg>
